<svg width="10" height="10" viewBox="0 0 10 10" fill="none" xmlns="http://www.w3.org/2000/svg">
<path d="M8.98468 5.78009H5.6081V9.15667C5.6081 9.5281 5.3042 9.83199 4.93278 9.83199C4.56136 9.83199 4.25746 9.5281 4.25746 9.15667V5.78009H0.880883C0.509459 5.78009 0.205566 5.4762 0.205566 5.10478C0.205566 4.73335 0.509459 4.42946 0.880883 4.42946H4.25746V1.05288C4.25746 0.681456 4.56136 0.377563 4.93278 0.377563C5.3042 0.377563 5.6081 0.681456 5.6081 1.05288V4.42946H8.98468C9.3561 4.42946 9.65999 4.73335 9.65999 5.10478C9.65999 5.4762 9.3561 5.78009 8.98468 5.78009Z" fill="#323232"/>
</svg>
