<svg width="31" height="27" viewBox="0 0 31 27" fill="none" xmlns="http://www.w3.org/2000/svg">
<path d="M22.5441 14.6734C23.7062 14.6734 24.7288 14.1335 25.2556 13.3172L30.8026 4.77164C31.3758 3.9026 30.6321 2.82289 29.4546 2.82289H6.52308L5.06662 0.189453H0V2.82289H3.09885L8.67678 12.8168L6.58505 16.0296C5.45397 17.794 6.94142 19.9403 9.29655 19.9403H27.8896V17.3068H9.29655L11.0009 14.6734H22.5441ZM7.99503 5.45633H26.8205L22.5441 12.0399H11.6672L7.99503 5.45633ZM9.29655 21.257C7.59218 21.257 6.21319 22.442 6.21319 23.8904C6.21319 25.3388 7.59218 26.5239 9.29655 26.5239C11.0009 26.5239 12.3954 25.3388 12.3954 23.8904C12.3954 22.442 11.0009 21.257 9.29655 21.257ZM24.7908 21.257C23.0864 21.257 21.7074 22.442 21.7074 23.8904C21.7074 25.3388 23.0864 26.5239 24.7908 26.5239C26.4952 26.5239 27.8896 25.3388 27.8896 23.8904C27.8896 22.442 26.4952 21.257 24.7908 21.257Z" fill="#323232"/>
</svg>
