<svg width="14" height="18" viewBox="0 0 14 18" fill="none" xmlns="http://www.w3.org/2000/svg">
<path d="M7.00004 8.99996C6.08337 8.99996 5.33337 8.24996 5.33337 7.33329C5.33337 6.41663 6.08337 5.66663 7.00004 5.66663C7.91671 5.66663 8.66671 6.41663 8.66671 7.33329C8.66671 8.24996 7.91671 8.99996 7.00004 8.99996ZM12 7.49996C12 4.47496 9.79171 2.33329 7.00004 2.33329C4.20837 2.33329 2.00004 4.47496 2.00004 7.49996C2.00004 9.44996 3.62504 12.0333 7.00004 15.1166C10.375 12.0333 12 9.44996 12 7.49996ZM7.00004 0.666626C10.5 0.666626 13.6667 3.34996 13.6667 7.49996C13.6667 10.2666 11.4417 13.5416 7.00004 17.3333C2.55837 13.5416 0.333374 10.2666 0.333374 7.49996C0.333374 3.34996 3.50004 0.666626 7.00004 0.666626Z" fill="#323232"/>
</svg>
