<svg width="67" height="28" viewBox="0 0 67 28" fill="none" xmlns="http://www.w3.org/2000/svg">
<rect x="0.695923" y="0.96875" width="65.9725" height="26.8013" rx="10.3082" fill="#C9E3D1"/>
<path d="M30.1377 18.056V17.224L36.0737 9.8H37.3537L31.4657 17.224L30.8417 17.032H39.8497V18.056H30.1377ZM36.4577 21V18.056L36.4897 17.032V14.44H37.6097V21H36.4577ZM42.0843 21.08C41.8497 21.08 41.647 20.9947 41.4763 20.824C41.3163 20.6533 41.2363 20.4453 41.2363 20.2C41.2363 19.944 41.3163 19.736 41.4763 19.576C41.647 19.416 41.8497 19.336 42.0843 19.336C42.319 19.336 42.5163 19.416 42.6763 19.576C42.847 19.736 42.9323 19.944 42.9323 20.2C42.9323 20.4453 42.847 20.6533 42.6763 20.824C42.5163 20.9947 42.319 21.08 42.0843 21.08ZM46.3915 21L51.2235 10.312L51.5755 10.824H44.6475L45.2395 10.264V12.92H44.1035V9.8H52.3275V10.616L47.6395 21H46.3915Z" fill="black"/>
<g clip-path="url(#clip0_6_1929)">
<path d="M15.7838 19.0707L20.47 22.0405L19.2264 16.4432L23.3666 12.6772L17.9146 12.1915L15.7838 6.91272L13.653 12.1915L8.20093 12.6772L12.3412 16.4432L11.0976 22.0405L15.7838 19.0707Z" fill="#323232"/>
</g>
<defs>
<clipPath id="clip0_6_1929">
<rect width="18.1988" height="19.1088" fill="white" transform="translate(6.68433 5.32031)"/>
</clipPath>
</defs>
</svg>
