<svg width="197" height="197" viewBox="0 0 197 197" fill="none" xmlns="http://www.w3.org/2000/svg">
<circle cx="98.5" cy="98.5" r="98.5" fill="#EFEFEF"/>
<path d="M79.4095 55.4278L79.9321 55.6456H121.484L122.093 55.4278L125.039 48.8578C125.345 48.1751 124.91 47.3893 124.169 47.2856L72.2065 40.011C71.5307 39.9165 70.9272 40.4412 70.9272 41.1237V46.4807C70.9272 46.7786 71.0455 47.0643 71.2563 47.2752L79.4095 55.4278Z" fill="#99E6FC"/>
<path d="M79.4102 55.4281L79.9329 55.6459H89.2323L88.7096 55.4281L80.5567 47.2752C80.3461 47.0646 80.2276 46.7786 80.2276 46.4807V41.134L72.2075 40.011C71.5317 39.9165 70.9282 40.4412 70.9282 41.1237V46.4807C70.9282 46.7786 71.0465 47.0643 71.2573 47.2752L79.4102 55.4281Z" fill="#62DBFB"/>
<path d="M135.53 65.8261H121.876V74.0346H135.53C138.531 74.0346 140.973 76.4766 140.973 79.478V107.444C140.973 110.202 138.911 112.486 136.247 112.839C136.514 115.013 136.651 117.222 136.651 119.455C136.651 119.988 136.641 120.519 136.626 121.049C143.652 120.49 149.182 114.615 149.182 107.444V79.478C149.182 71.9383 143.069 65.8261 135.53 65.8261V65.8261Z" fill="#99E6FC"/>
<path d="M126.982 88.9857C123.807 84.87 122.094 79.8138 122.094 74.6154V55.4267H79.41V74.6154C79.41 78.2361 78.5769 81.7867 76.9997 84.9998C77.8219 84.2989 78.8533 83.9141 79.9451 83.9141C81.1608 83.9141 82.3037 84.3876 83.1631 85.2472C84.0227 86.1068 84.4962 87.2497 84.4962 88.4652C84.4962 89.6807 84.0227 90.8239 83.1631 91.6833L75.4236 99.4228H83.09C83.4153 99.4228 83.7268 99.5615 83.9446 99.8033C84.1626 100.045 84.268 100.369 84.2342 100.693L78.9402 151.289L79.1362 151.506H125.697C132.581 143.435 136.869 132.059 136.869 119.453C136.869 107.651 133.11 96.9282 126.982 88.9857V88.9857Z" fill="#C8EFFE"/>
<path d="M79.7368 143.672L78.9399 151.287L79.1359 151.505H85.0413C83.0392 149.157 81.2583 146.528 79.7368 143.672V143.672Z" fill="#99E6FC"/>
<path d="M79.4095 55.4267V74.6154C79.4095 78.2361 78.5765 81.7867 76.9993 84.9998C77.8214 84.2989 78.8529 83.9141 79.9446 83.9141C81.1603 83.9141 82.3033 84.3876 83.1627 85.2472C83.9119 85.9961 84.3671 86.9605 84.4718 88.0007C87.1863 84.0759 88.6446 79.4069 88.6446 74.6156V55.4267H79.4095Z" fill="#99E6FC"/>
<path d="M122.541 92.4121C118.849 87.6266 116.725 81.7165 116.504 75.6654C116.483 75.0796 116.004 74.6152 115.418 74.6152H86.0861C85.4998 74.6152 85.0213 75.0796 85 75.6654C84.8813 78.9153 84.2087 82.1226 83.044 85.1388C83.0832 85.1754 83.125 85.2087 83.1631 85.247C84.0227 86.1066 84.4962 87.2496 84.4962 88.4651C84.4962 89.6805 84.0227 90.8237 83.1631 91.6831L75.4236 99.4227H83.09C83.4153 99.4227 83.7268 99.5614 83.9446 99.8031C84.1626 100.045 84.268 100.369 84.2342 100.693L79.5043 145.897H122.435C122.785 145.897 123.116 145.732 123.319 145.447C128.394 138.35 131.26 129.051 131.26 119.452C131.26 109.302 128.164 99.6993 122.541 92.4121V92.4121Z" fill="#FFD15B"/>
<path d="M79.5049 145.896H87.7477C84.6867 141.749 82.3973 136.814 81.0124 131.489L79.5049 145.896Z" fill="#FFC344"/>
<path d="M86.0861 74.6143C85.4998 74.6143 85.0213 75.0786 85 75.6644C84.8813 78.9143 84.2087 82.1216 83.044 85.1378C83.0832 85.1744 83.125 85.2077 83.1631 85.246C84.0227 86.1056 84.4962 87.2486 84.4962 88.4641C84.4962 89.6796 84.0227 90.8227 83.1631 91.6821L75.4236 99.4217H83.09C83.3428 99.4217 83.5863 99.5062 83.7849 99.6569C85.0117 97.0608 86.487 94.6281 88.1975 92.4111C92.1033 87.349 94.2542 81.0286 94.2542 74.6143H86.0861Z" fill="#FFC344"/>
<path d="M54.153 99.4251H75.7312L83.317 91.8393C85.1793 89.977 85.1793 86.9574 83.317 85.0951C81.4547 83.2328 78.4351 83.2328 76.5728 85.0951L69.5641 92.1037C67.0114 94.6564 62.873 94.6564 60.3203 92.1037L57.1373 88.9208C55.275 87.0585 52.2554 87.0585 50.3931 88.9208C48.5308 90.7831 48.5308 93.8027 50.3931 95.665L54.153 99.4251Z" fill="#FFD15B"/>
<path d="M54.1532 99.4243H61.2481L57.488 95.6642C55.6849 93.8612 55.6328 90.9763 57.3216 89.1042L57.1373 88.92C55.275 87.0577 52.2554 87.0577 50.3931 88.92C48.5308 90.7823 48.5308 93.8019 50.3931 95.6642L54.1532 99.4243Z" fill="#FFC344"/>
<path d="M79.1362 151.507H53.5543C52.8539 151.507 52.2665 150.978 52.1936 150.282L47.0076 100.716C46.9231 99.9089 47.5564 99.2061 48.3683 99.2061H83.0899C83.9018 99.2061 84.5349 99.9091 84.4506 100.716L79.1362 151.507Z" fill="#C8EFFE"/>
<path d="M61.5636 150.283L61.1222 146.064H58.2075C57.65 146.064 57.1824 145.642 57.1245 145.088L53.0194 105.854C52.9521 105.211 53.4563 104.652 54.1024 104.652H56.7893L56.3777 100.717C56.2932 99.9098 56.9265 99.207 57.7384 99.207H48.3683C47.5564 99.207 46.9233 99.9101 47.0075 100.717L52.1935 150.283C52.2665 150.979 52.8536 151.508 53.554 151.508H62.924C62.224 151.508 61.6366 150.979 61.5636 150.283V150.283Z" fill="#99E6FC"/>
<path d="M65.5366 86.5541C67.8789 86.5541 69.7776 84.6554 69.7776 82.3131C69.7776 79.9709 67.8789 78.0721 65.5366 78.0721C63.1944 78.0721 61.2957 79.9709 61.2957 82.3131C61.2957 84.6554 63.1944 86.5541 65.5366 86.5541Z" fill="#FFD15B"/>
<path d="M65.1536 82.3131C65.1536 80.6662 66.0942 79.2419 67.4656 78.5393C66.8865 78.2427 66.232 78.0721 65.5366 78.0721C63.1943 78.0721 61.2957 79.9708 61.2957 82.3131C61.2957 84.6555 63.1943 86.5541 65.5366 86.5541C66.232 86.5541 66.8865 86.3836 67.4656 86.087C66.0942 85.3844 65.1536 83.9601 65.1536 82.3131Z" fill="#FFC344"/>
<path d="M52.8819 79.6021C54.4307 79.6021 55.6863 78.3465 55.6863 76.7976C55.6863 75.2488 54.4307 73.9932 52.8819 73.9932C51.333 73.9932 50.0774 75.2488 50.0774 76.7976C50.0774 78.3465 51.333 79.6021 52.8819 79.6021Z" fill="#FFD15B"/>
<path d="M52.5454 76.7976C52.5454 75.6921 53.1865 74.7389 54.1158 74.2822C53.743 74.099 53.3253 73.9932 52.8819 73.9932C51.3329 73.9932 50.0774 75.2487 50.0774 76.7976C50.0774 78.3465 51.3329 79.6021 52.8819 79.6021C53.3253 79.6021 53.743 79.4965 54.1158 79.3131C53.1865 78.8564 52.5454 77.9029 52.5454 76.7976V76.7976Z" fill="#FFC344"/>
<path d="M57.1243 145.088L53.019 105.854C52.9517 105.211 53.4559 104.651 54.102 104.651H77.3551C78.0013 104.651 78.5055 105.211 78.4382 105.854L74.3333 145.088C74.2754 145.642 73.8078 146.063 73.2502 146.063H58.2071C57.6496 146.063 57.1822 145.642 57.1243 145.088V145.088Z" fill="#FFD15B"/>
<path d="M63.921 145.088L59.8157 105.854C59.7484 105.211 60.2526 104.651 60.8988 104.651H54.102C53.4559 104.651 52.9517 105.211 53.019 105.854L57.1241 145.088C57.182 145.642 57.6496 146.063 58.2071 146.063H65.0039C64.4463 146.063 63.979 145.642 63.921 145.088V145.088Z" fill="#FFC344"/>
</svg>
