<svg width="197" height="197" viewBox="0 0 197 197" fill="none" xmlns="http://www.w3.org/2000/svg">
<circle cx="98.5" cy="98.5" r="98.5" fill="#EFEFEF"/>
<path d="M152.595 79.1813C147.153 73.9441 136.267 70.3168 123.698 70.2169C120.826 70.194 118.041 70.3587 115.385 70.6845C116.814 72.0953 118.069 73.7196 119.095 75.5303C119.604 76.4267 120.052 77.3634 120.429 78.3143C121.48 80.9702 123.621 83.0629 126.302 84.0558C128.891 85.0141 131.309 86.3408 133.49 87.9769C141.738 86.7329 148.585 83.8936 152.587 80.1628C152.87 79.8987 152.874 79.45 152.595 79.1813V79.1813Z" fill="#026841"/>
<path d="M120.937 79.3981C122.094 81.5355 123.997 83.2027 126.302 84.056C128.89 85.0142 131.308 86.341 133.489 87.977C141.737 86.733 148.584 83.8937 152.587 80.163C152.741 80.0188 152.809 79.8202 152.797 79.6255L120.937 79.3981Z" fill="#017B4E"/>
<path d="M119.096 75.5303C119.505 76.2518 119.873 77.0003 120.198 77.7606C122.378 76.1218 124.538 74.269 126.627 72.2129C135.586 63.3957 140.881 53.2165 141.146 45.6684C141.16 45.2812 140.845 44.9615 140.458 44.9689C132.907 45.1137 122.644 50.2463 113.686 59.0635C111.465 61.2492 109.47 63.5186 107.72 65.8106C112.406 67.5143 116.486 70.9264 119.096 75.5303V75.5303Z" fill="#02905D"/>
<path d="M119.096 75.5325C119.505 76.254 119.873 77.0025 120.199 77.7626C122.378 76.1238 124.539 74.271 126.628 72.2149C135.586 63.3977 140.882 53.2185 141.147 45.6704C141.154 45.4591 141.062 45.2705 140.916 45.1416L115.196 70.4974C116.704 71.9509 118.024 73.6412 119.096 75.5325V75.5325Z" fill="#09A76D"/>
<path d="M100.877 64.5945C105.139 64.5945 109.257 65.9816 112.715 68.4404C113.378 64.9523 113.755 61.1844 113.786 57.2515C113.886 44.6819 110.433 33.74 105.283 28.2151C105.019 27.9315 104.57 27.9281 104.301 28.2073C99.0643 33.6494 95.437 44.5351 95.3371 57.1045C95.3146 59.931 95.4732 62.674 95.789 65.2929C97.4372 64.8334 99.1497 64.5945 100.877 64.5945V64.5945Z" fill="#026841"/>
<path d="M112.715 68.4421C113.378 64.954 113.755 61.186 113.787 57.2532C113.887 44.6835 110.433 33.7416 105.283 28.2167C105.139 28.0621 104.94 27.994 104.746 28.0061L104.482 64.93C107.438 65.4773 110.245 66.6856 112.715 68.4421V68.4421Z" fill="#017B4E"/>
<path d="M91.5237 124.77C88.2464 118.94 87.1204 112.114 88.3529 105.55C88.878 102.754 88.1808 99.8484 86.4405 97.5792C85.8183 96.7677 85.2451 95.902 84.7372 95.0061C81.9758 90.1341 81.1683 84.5407 82.4637 79.2562C83.7578 73.9764 86.9963 69.6372 91.5829 67.0374C92.5935 66.4647 93.6554 65.9905 94.7517 65.6157C85.6983 62.027 74.8687 65.8424 69.4602 74.9882C68.9225 75.8975 68.4575 76.8283 68.0629 77.7735C66.9885 80.3474 64.8653 82.3602 62.2318 83.2784C56.0797 85.4238 50.6204 89.6611 47.026 95.6912C38.9999 109.157 43.3502 126.765 56.7313 134.931C69.2147 142.549 85.1373 139.509 94.0363 128.501C93.1092 127.335 92.2661 126.09 91.5237 124.77V124.77Z" fill="#02905D"/>
<path d="M91.5829 67.0374C92.5935 66.4647 93.6554 65.9905 94.7517 65.6157C85.6983 62.027 74.8687 65.8424 69.4602 74.9882C68.9225 75.8975 68.4575 76.8283 68.0629 77.7735C66.9885 80.3474 64.8653 82.3602 62.2318 83.2784C56.0797 85.4238 50.6204 89.6611 47.026 95.6912C38.9999 109.157 43.3502 126.765 56.7313 134.931C57.6926 135.518 58.6751 136.039 59.6723 136.5C49.6406 127.52 47.0156 112.309 54.1381 100.36C57.7325 94.3298 63.1916 90.0925 69.3439 87.9471C71.9774 87.0287 74.1006 85.0161 75.175 82.4423C75.5696 81.4971 76.0346 80.5662 76.5723 79.657C79.1524 75.294 82.9674 72.1489 87.2332 70.4371C88.4962 69.1093 89.9523 67.9615 91.5829 67.0374Z" fill="#017B4E"/>
<path d="M49.9149 114.171C50.817 114.171 51.5483 113.44 51.5483 112.538C51.5483 111.636 50.817 110.904 49.9149 110.904C49.0128 110.904 48.2815 111.636 48.2815 112.538C48.2815 113.44 49.0128 114.171 49.9149 114.171Z" fill="#026841"/>
<path d="M58.6354 117.833C59.5375 117.833 60.2688 117.102 60.2688 116.2C60.2688 115.298 59.5375 114.566 58.6354 114.566C57.7333 114.566 57.002 115.298 57.002 116.2C57.002 117.102 57.7333 117.833 58.6354 117.833Z" fill="#026841"/>
<path d="M54.3194 124.53C55.2216 124.53 55.9529 123.799 55.9529 122.897C55.9529 121.995 55.2216 121.264 54.3194 121.264C53.4173 121.264 52.686 121.995 52.686 122.897C52.686 123.799 53.4173 124.53 54.3194 124.53Z" fill="#026841"/>
<path d="M61.9078 129.526C62.8099 129.526 63.5412 128.794 63.5412 127.892C63.5412 126.99 62.8099 126.259 61.9078 126.259C61.0057 126.259 60.2744 126.99 60.2744 127.892C60.2744 128.794 61.0057 129.526 61.9078 129.526Z" fill="#026841"/>
<path d="M54.2591 103.886C55.1613 103.886 55.8926 103.155 55.8926 102.253C55.8926 101.35 55.1613 100.619 54.2591 100.619C53.357 100.619 52.6257 101.35 52.6257 102.253C52.6257 103.155 53.357 103.886 54.2591 103.886Z" fill="#026841"/>
<path d="M126.378 83.8509C123.756 82.8802 121.66 80.8328 120.631 78.2334C120.254 77.2808 119.806 76.3415 119.285 75.4224C113.519 65.2487 101.068 61.4086 91.4756 66.8455C81.8831 72.2824 78.7816 84.9372 84.5479 95.111C85.0689 96.03 85.6445 96.8966 86.2678 97.7094C87.9653 99.9226 88.6537 102.766 88.1391 105.507C86.9369 111.911 87.8938 118.755 91.3342 124.874C99.0165 138.539 116.453 143.532 130.197 135.992C144.277 128.269 149.278 110.549 141.385 96.6235C137.907 90.4875 132.511 86.1217 126.378 83.8509V83.8509Z" fill="#81B823"/>
<path d="M127.761 130.863C127.666 130.917 127.569 130.971 127.473 131.024C116.439 137.076 102.443 133.071 96.2726 122.096C93.6214 117.381 92.7104 111.86 93.707 106.551C94.5172 102.235 93.4442 97.7557 90.7634 94.26C90.2936 93.6474 89.8607 92.9931 89.4767 92.3158C85.2599 84.8759 87.4099 75.66 94.2694 71.7723C101.129 67.8845 110.14 70.7743 114.357 78.2142C114.741 78.892 115.08 79.5996 115.364 80.3172C116.984 84.4092 120.282 87.6329 124.411 89.162C129.499 91.0459 133.777 94.6871 136.457 99.4153C139.495 104.777 140.264 111.001 138.622 116.94C136.98 122.88 133.123 127.824 127.762 130.863C127.761 130.863 127.762 130.863 127.761 130.863V130.863Z" fill="#D1F19E"/>
<path d="M103.267 119.791C100.615 115.076 99.7045 109.555 100.701 104.246C101.511 99.9307 100.438 95.451 97.7575 91.9552C97.2877 91.3426 96.8547 90.6884 96.4708 90.0111C92.453 82.9223 94.2186 74.2249 100.327 70.0566C98.2414 70.1394 96.1724 70.6945 94.2694 71.773C87.4099 75.6608 85.2599 84.8767 89.4767 92.3166C89.8607 92.9939 90.2936 93.6481 90.7634 94.2608C93.4444 97.7565 94.5172 102.236 93.707 106.551C92.7102 111.86 93.6212 117.381 96.2726 122.097C102.361 132.926 116.067 136.968 127.029 131.261C117.765 132.721 108.107 128.402 103.267 119.791V119.791Z" fill="#BBEC6C"/>
<path d="M137.877 98.6104C135.008 93.5475 130.427 89.6482 124.978 87.6309C121.283 86.2627 118.332 83.3781 116.882 79.7166C116.57 78.9285 116.199 78.1523 115.778 77.4096C113.535 73.4533 109.993 70.5345 105.803 69.1907C101.565 67.8315 97.1827 68.244 93.4638 70.352C85.8207 74.684 83.3947 84.8985 88.0554 93.122C88.476 93.8642 88.951 94.5818 89.4671 95.2548C91.8658 98.3826 92.8261 102.39 92.1017 106.25C91.0343 111.936 92.0098 117.848 94.8487 122.897C99.3665 130.933 107.801 135.479 116.462 135.479C120.467 135.479 124.523 134.506 128.259 132.456L128.567 132.285C134.308 129.031 138.438 123.736 140.196 117.376C141.955 111.016 141.131 104.352 137.877 98.6104ZM137.048 116.505C135.522 122.024 131.938 126.619 126.956 129.442L126.687 129.592C123.445 131.371 119.928 132.215 116.452 132.215C108.938 132.214 101.617 128.269 97.6965 121.296C95.2331 116.915 94.3865 111.785 95.3126 106.852C96.2081 102.082 95.0225 97.1297 92.0597 93.2666C91.6352 92.7129 91.2443 92.1223 90.8978 91.5108C87.125 84.8545 88.9989 76.6373 95.0747 73.1937C96.8549 72.1847 98.8362 71.6735 100.874 71.6735C102.174 71.6735 103.497 71.8815 104.805 72.301C108.212 73.3934 111.099 75.7797 112.936 79.0202C113.283 79.6319 113.589 80.2707 113.845 80.9188C115.636 85.4414 119.28 89.0042 123.844 90.694C128.571 92.4442 132.545 95.8278 135.035 100.221C137.859 105.203 138.574 110.986 137.048 116.505V116.505Z" fill="#8BC727"/>
<path d="M122.791 122.121C129.04 118.579 131.002 110.229 127.172 103.471C123.342 96.7125 115.171 94.1047 108.922 97.6461C102.672 101.188 100.71 109.537 104.54 116.296C108.37 123.054 116.541 125.662 122.791 122.121Z" fill="#A44F3E"/>
<path d="M111.526 114.043C107.918 107.678 109.449 99.902 114.86 96.0595C112.822 96.0756 110.789 96.5811 108.926 97.6367C102.676 101.179 100.715 109.529 104.546 116.287C108.376 123.046 116.548 125.653 122.797 122.111C123.161 121.905 123.509 121.681 123.843 121.443C119.042 121.481 114.214 118.787 111.526 114.043V114.043Z" fill="#883F2E"/>
</svg>
