<svg width="197" height="197" viewBox="0 0 197 197" fill="none" xmlns="http://www.w3.org/2000/svg">
<circle cx="98.5" cy="98.5" r="98.5" fill="#EFEFEF"/>
<path d="M71.4752 84.0867C71.6381 83.9238 71.8548 83.8341 72.0855 83.8341C72.3261 83.8341 72.5489 83.9306 72.7127 84.1057C73.7524 85.2184 74.7237 86.4166 75.5997 87.6672C75.8447 88.0167 76.2446 88.2256 76.6695 88.2256C77.0134 88.2256 77.337 88.0912 77.5811 87.8471L79.7255 85.7029C79.8884 85.5398 80.1053 85.4501 80.3361 85.4501C80.5766 85.4501 80.7987 85.5463 80.9619 85.7212C82.8017 87.6931 84.3833 89.8949 85.663 92.2651C85.888 92.6818 86.3234 92.9407 86.7992 92.9407C87.1449 92.9407 87.47 92.8057 87.715 92.5604L88.7277 91.5477C88.8911 91.3846 89.108 91.2947 89.3391 91.2947C89.5795 91.2947 89.801 91.3909 89.9633 91.566C93.9285 95.841 96.5481 101.276 97.5388 107.283H97.9685C98.9592 101.276 101.579 95.841 105.544 91.566C105.706 91.3911 105.928 91.2947 106.168 91.2947C106.399 91.2947 106.616 91.3846 106.78 91.5477L107.792 92.5604C108.037 92.8055 108.362 92.9407 108.708 92.9407C109.184 92.9407 109.619 92.682 109.844 92.2651C111.124 89.8949 112.706 87.6931 114.545 85.7212C114.709 85.5463 114.931 85.4501 115.171 85.4501C115.402 85.4501 115.619 85.5398 115.782 85.7029L117.926 87.8471C118.17 88.0912 118.494 88.2256 118.838 88.2256C119.263 88.2256 119.663 88.0167 119.908 87.6672C120.783 86.4166 121.755 85.2184 122.795 84.1057C122.958 83.9306 123.181 83.8341 123.422 83.8341C123.652 83.8341 123.869 83.9238 124.032 84.0867L124.151 84.2052C124.758 82.0204 125.121 79.7534 125.208 77.4263C125.231 76.818 124.738 76.3141 124.13 76.3141H122.697C121.979 76.3141 121.458 75.623 121.664 74.9344C122.429 72.3756 122.88 69.6942 122.976 66.928C122.997 66.3198 122.506 65.8154 121.897 65.8154H118.865C118.191 65.8154 117.689 65.2058 117.805 64.5426C118.069 63.0473 118.232 61.5149 118.285 59.9525C118.306 59.3438 117.815 58.839 117.206 58.839H113.505C112.971 58.839 112.522 58.4476 112.441 57.9199C111.156 49.527 105.538 42.6812 98.1066 40.0649C97.8788 39.9848 97.6287 39.9848 97.4012 40.0649C89.97 42.6812 84.3517 49.527 83.067 57.9199C82.9862 58.4476 82.5362 58.839 82.0024 58.839H78.3016C77.6924 58.839 77.2017 59.3438 77.2224 59.9525C77.2754 61.5149 77.4391 63.0473 77.7024 64.5426C77.8192 65.206 77.3167 65.8154 76.6431 65.8154H73.6106C73.0019 65.8154 72.5106 66.3195 72.5317 66.928C72.6275 69.694 73.0792 72.3756 73.8437 74.9344C74.0495 75.623 73.529 76.3141 72.8103 76.3141H71.3781C70.7694 76.3141 70.2767 76.8183 70.2996 77.4263C70.3871 79.7534 70.7493 82.0204 71.3572 84.2052L71.4752 84.0867Z" fill="#02905D"/>
<path d="M71.4796 84.0823C71.6425 83.9193 71.8592 83.8296 72.0899 83.8296C72.3305 83.8296 72.5533 83.9261 72.7171 84.1012C73.7568 85.2139 74.7282 86.4122 75.6041 87.6627C75.8491 88.0122 76.249 88.2211 76.6739 88.2211C77.0178 88.2211 77.3414 88.0867 77.5856 87.8426L79.7299 85.6985C79.8928 85.5353 80.1097 85.4456 80.3406 85.4456C80.581 85.4456 80.8032 85.5419 80.9663 85.7168C81.0767 85.835 81.183 85.9568 81.2914 86.0765C80.3264 83.3235 79.7573 80.4223 79.6445 77.4216C79.6217 76.8133 80.1143 76.3094 80.723 76.3094H82.1552C82.8739 76.3094 83.3944 75.6183 83.1886 74.9297C82.4239 72.3709 81.9725 69.6895 81.8766 66.9234C81.8555 66.3151 82.3468 65.8107 82.9556 65.8107H85.988C86.6617 65.8107 87.1641 65.2011 87.0474 64.5379C86.7841 63.0426 86.6203 61.5102 86.5674 59.9478C86.5467 59.3391 87.0374 58.8343 87.6465 58.8343H91.3474C91.8812 58.8343 92.3311 58.4429 92.4119 57.9152C93.4334 51.2426 97.1957 45.5505 102.429 42.1815C101.08 41.313 99.6342 40.5964 98.1112 40.0602C97.8834 39.9801 97.6334 39.9801 97.4058 40.0602C89.9747 42.6765 84.3564 49.5223 83.0716 57.9152C82.9908 58.4429 82.5409 58.8343 82.0071 58.8343H78.3062C77.6971 58.8343 77.2064 59.3391 77.2271 59.9478C77.28 61.5102 77.4438 63.0426 77.7071 64.5379C77.8238 65.2011 77.3214 65.8107 76.6478 65.8107H73.6153C73.0066 65.8107 72.5152 66.3149 72.5363 66.9234C72.6322 69.6893 73.0839 72.3709 73.8483 74.9297C74.0541 75.6183 73.5336 76.3094 72.8149 76.3094H71.3827C70.774 76.3094 70.2814 76.8133 70.3042 77.4216C70.3918 79.7487 70.754 82.0157 71.3618 84.2005L71.4796 84.0823Z" fill="#017B4E"/>
<path d="M96.1202 87.2096V101.778C96.7494 103.543 97.2259 105.383 97.5389 107.281H97.9686C98.2815 105.383 98.758 103.543 99.3872 101.778V76.6628C104.521 75.874 108.466 71.4265 108.466 66.075C108.466 65.173 107.735 64.4416 106.833 64.4416C105.93 64.4416 105.199 65.173 105.199 66.075C105.199 69.6191 102.709 72.5908 99.3872 73.3376V53.4128C99.3872 52.5108 98.6561 51.7794 97.7538 51.7794C96.8515 51.7794 96.1204 52.5108 96.1204 53.4128V63.9784C93.5566 63.2627 91.6695 60.9078 91.6695 58.1188C91.6695 57.2167 90.9384 56.4854 90.0361 56.4854C89.1338 56.4854 88.4027 57.2167 88.4027 58.1188C88.4027 62.7176 91.7407 66.5487 96.1204 67.3241V83.9217C90.811 83.1986 86.7248 79.0071 86.7248 73.9596C86.7248 73.0575 85.9937 72.3262 85.0914 72.3262C84.1891 72.3262 83.458 73.0575 83.458 73.9596C83.4578 80.7993 89.0042 86.4506 96.1202 87.2096V87.2096Z" fill="#026841"/>
<path d="M97.8694 107.99C96.9945 101.818 94.4305 96.0542 90.1231 91.4103C89.7091 90.964 89.0043 90.956 88.574 91.3863L87.5612 92.399C87.0529 92.9074 86.1964 92.7867 85.8549 92.1543C84.5862 89.8043 83.0095 87.5888 81.1212 85.5653C80.7059 85.1201 80.002 85.111 79.5717 85.5415L77.4275 87.6859C76.9512 88.1622 76.1648 88.0864 75.7784 87.5347C74.9073 86.2912 73.9397 85.0918 72.8723 83.9495C72.4565 83.5046 71.7524 83.4945 71.3218 83.9251L68.7049 86.5421C68.3275 86.9195 67.7325 86.9609 67.3023 86.6449C60.4592 81.6187 51.6457 80.7506 44.5411 84.1553C44.3233 84.2596 44.1464 84.4365 44.0421 84.6543C40.6374 91.759 41.5053 100.572 46.5316 107.416C46.8476 107.846 46.806 108.441 46.4288 108.818L43.8119 111.435C43.3813 111.865 43.3911 112.57 43.8363 112.985C44.9786 114.053 46.1779 115.021 47.4215 115.891C47.9732 116.278 48.0488 117.064 47.5727 117.541L45.4283 119.685C44.998 120.115 45.0071 120.819 45.4521 121.234C47.4757 123.122 49.6911 124.699 52.041 125.968C52.6735 126.31 52.7941 127.166 52.2858 127.674L51.2731 128.687C50.8428 129.118 50.8508 129.822 51.2971 130.236C61.9713 140.137 78.5587 140.831 92.436 132.959C92.6065 132.862 92.749 132.72 92.8457 132.549C95.5042 127.862 97.1844 122.867 97.8642 117.894C97.4053 114.535 97.4085 111.201 97.8694 107.99Z" fill="#09A76D"/>
<path d="M89.8258 132.25C78.4631 135.34 66.6379 133.201 58.3645 125.528C57.9183 125.114 57.9102 124.409 58.3406 123.978L59.3533 122.966C59.8616 122.457 59.7409 121.601 59.1085 121.259C56.7585 119.991 54.543 118.414 52.5195 116.526C52.0746 116.11 52.0652 115.407 52.4958 114.976L54.6401 112.832C55.1164 112.356 55.0406 111.569 54.489 111.183C53.2454 110.312 52.046 109.344 50.9037 108.277C50.4588 107.861 50.4488 107.157 50.8793 106.726L51.1755 106.43C51.115 106.372 51.0534 106.316 50.9941 106.257C50.3562 105.619 50.3562 104.585 50.9943 103.947C51.6322 103.309 52.6665 103.309 53.3042 103.947C53.3634 104.006 53.4246 104.063 53.4856 104.12L53.4961 104.11C53.8735 103.732 53.9149 103.137 53.5989 102.707C49.1379 96.6336 47.9555 89.0088 50.1256 82.4033C48.1955 82.7224 46.3149 83.3061 44.5408 84.1563C44.323 84.2606 44.1464 84.4375 44.0421 84.6553C40.6374 91.7599 41.5053 100.573 46.5316 107.417C46.8476 107.847 46.8061 108.442 46.4288 108.819L43.8117 111.435C43.3811 111.866 43.3911 112.57 43.8361 112.986C44.9784 114.053 46.1777 115.021 47.4213 115.892C47.973 116.278 48.0485 117.065 47.5724 117.541L45.4281 119.685C44.9978 120.116 45.0069 120.82 45.4518 121.235C47.4755 123.123 49.6909 124.7 52.0408 125.969C52.6733 126.31 52.7939 127.167 52.2856 127.675L51.2729 128.688C50.8425 129.118 50.8506 129.823 51.2968 130.237C61.6577 139.847 77.5891 140.782 91.2061 133.63L89.8258 132.25Z" fill="#02905D"/>
<path d="M109.653 92.1543C110.921 89.8043 112.498 87.5888 114.386 85.5653C114.802 85.1201 115.505 85.111 115.936 85.5415L118.08 87.6859C118.556 88.1622 119.343 88.0864 119.729 87.5347C120.6 86.2912 121.568 85.0918 122.635 83.9495C123.051 83.5046 123.755 83.4945 124.186 83.9251L126.803 86.5421C127.18 86.9195 127.775 86.9609 128.205 86.6449C135.048 81.6187 143.862 80.7506 150.967 84.1553C151.184 84.2596 151.361 84.4365 151.465 84.6541C154.87 91.7587 154.002 100.572 148.976 107.415C148.66 107.845 148.701 108.44 149.079 108.818L151.696 111.435C152.126 111.865 152.116 112.57 151.671 112.985C150.529 114.053 149.33 115.021 148.086 115.891C147.534 116.278 147.459 117.064 147.935 117.541L150.079 119.685C150.51 120.115 150.5 120.819 150.055 121.234C148.032 123.122 145.816 124.699 143.466 125.968C142.834 126.31 142.713 127.166 143.222 127.674L144.234 128.687C144.665 129.118 144.657 129.822 144.21 130.236C133.536 140.137 116.949 140.831 103.071 132.959C102.901 132.862 102.759 132.72 102.662 132.549C94.7896 118.672 95.4837 102.085 105.384 91.4103C105.798 90.964 106.503 90.956 106.934 91.3863L107.946 92.399C108.455 92.9074 109.311 92.7867 109.653 92.1543V92.1543Z" fill="#02905D"/>
<path d="M107.74 100.611C108.154 100.165 108.859 100.157 109.289 100.587L110.302 101.6C110.81 102.108 111.667 101.988 112.008 101.355C113.277 99.0053 114.854 96.7897 116.742 94.7662C117.157 94.3211 117.861 94.3119 118.292 94.7425L120.436 96.8869C120.912 97.3632 121.698 97.2874 122.085 96.7357C122.956 95.4921 123.924 94.2928 124.991 93.1505C125.407 92.7055 126.111 92.6955 126.542 93.1261L129.159 95.743C129.536 96.1205 130.131 96.1618 130.561 95.8458C137.404 90.8197 146.218 89.9516 153.322 93.3563C153.387 93.3872 153.446 93.426 153.502 93.4687C153.459 90.4166 152.785 87.407 151.465 84.6541C151.361 84.4363 151.184 84.2597 150.967 84.1554C143.862 80.7507 135.048 81.6186 128.205 86.6449C127.775 86.9609 127.18 86.9195 126.803 86.5421L124.186 83.9252C123.755 83.4946 123.051 83.5044 122.635 83.9496C121.568 85.0919 120.6 86.2912 119.729 87.5348C119.343 88.0865 118.556 88.162 118.08 87.6859L115.936 85.5416C115.505 85.1113 114.801 85.1204 114.386 85.5653C112.498 87.589 110.921 89.8044 109.653 92.1543C109.311 92.7868 108.454 92.9074 107.946 92.3991L106.933 91.3864C106.503 90.956 105.798 90.9641 105.384 91.4103C96.8078 100.657 95.1415 114.34 99.9657 126.856C98.7058 117.185 101.237 107.623 107.74 100.611V100.611Z" fill="#017B4E"/>
<path d="M144.513 103.945C143.875 103.307 142.841 103.307 142.203 103.945C140.796 105.352 138.926 106.128 136.939 106.128C135.507 106.128 134.138 105.724 132.957 104.972L140.459 97.4701C141.097 96.8322 141.097 95.7979 140.459 95.1602C139.821 94.5223 138.787 94.5223 138.149 95.1602L124.058 109.251C123.307 108.07 122.903 106.7 122.903 105.269C122.903 103.282 123.678 101.412 125.086 100.004C125.724 99.3663 125.724 98.3323 125.086 97.6944C124.448 97.0565 123.413 97.0565 122.776 97.6944C120.751 99.7189 119.636 102.409 119.636 105.269C119.636 107.577 120.363 109.774 121.708 111.601L110.991 122.318C107.006 117.299 107.008 110.31 111.233 106.086C111.87 105.448 111.87 104.414 111.233 103.776C110.594 103.138 109.56 103.138 108.922 103.776C103.43 109.269 103.425 118.326 108.666 124.643L97.7534 135.555L86.8406 124.643C92.0811 118.326 92.0765 109.268 86.5843 103.776C85.9464 103.138 84.9123 103.138 84.2742 103.776C83.6363 104.414 83.6363 105.448 84.2742 106.086C88.4987 110.31 88.5004 117.299 84.516 122.318L73.7988 111.601C75.1437 109.774 75.8709 107.577 75.8709 105.269C75.8709 102.409 74.7558 99.7187 72.731 97.6942C72.0933 97.0563 71.059 97.0563 70.4211 97.6942C69.7832 98.3321 69.7832 99.3663 70.4211 100.004C71.8289 101.412 72.604 103.281 72.604 105.269C72.604 106.7 72.1998 108.07 71.4484 109.25L57.358 95.1602C56.7198 94.5223 55.6858 94.5223 55.0479 95.1602C54.41 95.7981 54.41 96.8324 55.0479 97.4701L62.55 104.972C61.3692 105.723 59.9997 106.128 58.5682 106.128C56.5809 106.128 54.7112 105.352 53.3036 103.945C52.6657 103.307 51.6314 103.307 50.9938 103.945C50.3556 104.583 50.3556 105.617 50.9935 106.255C53.0181 108.279 55.7082 109.395 58.5682 109.395C60.8763 109.395 63.0738 108.667 64.9002 107.322L76.6209 119.043C72.3551 122.286 66.502 122.212 62.9329 118.642C62.2948 118.004 61.2607 118.004 60.6228 118.642C59.9849 119.28 59.9849 120.315 60.6228 120.952C63.1058 123.435 66.3999 124.664 69.7726 124.664C72.9699 124.664 76.2365 123.557 78.9469 121.369L96.1202 138.542V148.912C96.1202 149.814 96.8513 150.546 97.7536 150.546C98.6559 150.546 99.387 149.814 99.387 148.912V138.542L116.56 121.369C119.271 123.557 122.537 124.664 125.735 124.664C129.107 124.664 132.402 123.435 134.884 120.952C135.522 120.314 135.522 119.28 134.884 118.642C134.246 118.004 133.212 118.004 132.574 118.642C129.005 122.212 123.152 122.286 118.886 119.043L125.085 112.845C125.085 112.844 125.086 112.844 125.086 112.844C125.086 112.843 125.087 112.842 125.087 112.842L130.607 107.322C132.433 108.667 134.631 109.395 136.939 109.395C139.799 109.395 142.489 108.28 144.514 106.255C145.151 105.617 145.151 104.583 144.513 103.945V103.945Z" fill="#017B4E"/>
</svg>
