<svg width="32" height="34" viewBox="0 0 32 34" fill="none" xmlns="http://www.w3.org/2000/svg">
<path d="M30.0165 17L31.785 13.7525C31.9975 13.3618 32.0553 12.8973 31.9457 12.4614C31.8361 12.0254 31.5679 11.6535 31.2003 11.4275L28.1407 9.54842V5.80393C28.1407 5.35252 27.972 4.91959 27.6716 4.6004C27.3711 4.2812 26.9637 4.10188 26.5389 4.10188H23.0163L21.2495 0.852678C21.0361 0.462767 20.6868 0.177826 20.2771 0.0595248C20.074 0.00100147 19.8619 -0.014089 19.6532 0.0151279C19.4445 0.0443448 19.2433 0.117288 19.0613 0.229729L16.0017 2.10879L12.9422 0.228027C12.5742 0.0023321 12.137 -0.0588302 11.7267 0.0579945C11.3163 0.174819 10.9664 0.460062 10.754 0.850976L8.98553 4.10188H5.46301C5.03817 4.10188 4.63073 4.2812 4.33032 4.6004C4.02991 4.91959 3.86114 5.35252 3.86114 5.80393V9.54672L0.801562 11.4258C0.619 11.5374 0.458987 11.6862 0.330715 11.8637C0.202443 12.0411 0.108442 12.2438 0.0541106 12.46C-0.000220402 12.6762 -0.0138098 12.9017 0.0141232 13.1235C0.0420561 13.3453 0.110961 13.5591 0.216878 13.7525L1.98535 17L0.216878 20.2475C0.00541314 20.6386 -0.0519608 21.1026 0.0572652 21.5385C0.166491 21.9743 0.433459 22.3466 0.79996 22.5742L3.85954 24.4532V28.196C3.85954 28.6474 4.02831 29.0804 4.32872 29.3996C4.62913 29.7187 5.03657 29.8981 5.46141 29.8981H8.98553L10.754 33.149C10.8958 33.4066 11.0983 33.6205 11.3415 33.7697C11.5848 33.9189 11.8604 33.9983 12.1412 34C12.4199 34 12.6971 33.9217 12.9438 33.7702L16.0001 31.8912L19.0597 33.7702C19.4275 33.9956 19.8645 34.0568 20.2747 33.9403C20.6849 33.8238 21.0349 33.5393 21.2479 33.149L23.0147 29.8981H26.5373C26.9621 29.8981 27.3695 29.7187 27.67 29.3996C27.9704 29.0804 28.1391 28.6474 28.1391 28.196V24.4532L31.1987 22.5742C31.381 22.4623 31.5407 22.3133 31.6687 22.1358C31.7967 21.9583 31.8906 21.7557 31.9449 21.5396C31.9992 21.3235 32.0129 21.0982 31.9852 20.8765C31.9574 20.6547 31.8889 20.441 31.7834 20.2475L30.0165 17ZM11.9955 8.47273C12.6329 8.47296 13.2442 8.74225 13.6948 9.22136C14.1454 9.70047 14.3985 10.3502 14.3983 11.0275C14.398 11.7048 14.1446 12.3544 13.6937 12.8331C13.2428 13.3119 12.6313 13.5808 11.9939 13.5806C11.3564 13.5803 10.7451 13.3111 10.2945 12.8319C9.84386 12.3528 9.59083 11.7031 9.59104 11.0258C9.59125 10.3485 9.84469 9.69895 10.2956 9.22016C10.7465 8.74136 11.358 8.47251 11.9955 8.47273V8.47273ZM12.476 24.8124L9.91302 22.7716L19.5243 9.15525L22.0873 11.196L12.476 24.8124ZM20.0048 25.4932C19.6892 25.4931 19.3766 25.4269 19.0851 25.2984C18.7935 25.17 18.5286 24.9818 18.3054 24.7446C18.0823 24.5073 17.9054 24.2257 17.7847 23.9158C17.664 23.6059 17.6019 23.2738 17.602 22.9384C17.6021 22.603 17.6644 22.2709 17.7853 21.9611C17.9062 21.6513 18.0833 21.3698 18.3066 21.1328C18.5298 20.8957 18.7949 20.7077 19.0865 20.5794C19.3782 20.4512 19.6908 20.3852 20.0064 20.3853C20.6439 20.3856 21.2552 20.6549 21.7058 21.134C22.1564 21.6131 22.4094 22.2628 22.4092 22.9401C22.409 23.6175 22.1556 24.267 21.7047 24.7458C21.2537 25.2245 20.6423 25.4934 20.0048 25.4932V25.4932Z" fill="#73BC87"/>
</svg>
