<svg width="35" height="36" viewBox="0 0 35 36" fill="none" xmlns="http://www.w3.org/2000/svg">
<path d="M17.5 0C14.0388 0 10.6554 1.05568 7.77753 3.03355C4.89967 5.01141 2.65665 7.82263 1.33212 11.1117C0.00758242 14.4008 -0.338976 18.02 0.336265 21.5116C1.01151 25.0033 2.67822 28.2106 5.12564 30.7279C7.57306 33.2453 10.6913 34.9596 14.0859 35.6541C17.4806 36.3487 20.9993 35.9922 24.197 34.6298C27.3947 33.2674 30.1278 30.9603 32.0507 28.0003C33.9736 25.0402 35 21.5601 35 18C35 13.2261 33.1563 8.64773 29.8744 5.27208C26.5925 1.89642 22.1413 0 17.5 0V0ZM23.9313 10.125H26.25C26.5401 10.125 26.8183 10.2435 27.0234 10.4545C27.2285 10.6655 27.3438 10.9516 27.3438 11.25C27.3438 11.5484 27.2285 11.8345 27.0234 12.0455C26.8183 12.2565 26.5401 12.375 26.25 12.375H24.3469V12.5887C24.3628 13.4904 24.2055 14.3864 23.8841 15.2253C23.5626 16.0643 23.0833 16.8297 22.4736 17.4777C21.8639 18.1257 21.1358 18.6436 20.3312 19.0016C19.5265 19.3595 18.661 19.5506 17.7844 19.5637H15.5969L23.0563 28.6312C23.2912 28.9162 23.4065 29.2855 23.3768 29.6578C23.347 30.0302 23.1747 30.3752 22.8977 30.6169C22.6206 30.8585 22.2616 30.9771 21.8996 30.9465C21.5375 30.916 21.2022 30.7387 20.9672 30.4537L11.6266 19.0575C11.4542 18.8495 11.3445 18.5944 11.3108 18.3233C11.2772 18.0522 11.321 17.7769 11.4371 17.5311C11.5531 17.2852 11.7363 17.0795 11.9642 16.939C12.1921 16.7985 12.4548 16.7293 12.7203 16.74H17.8719C18.9115 16.7076 19.8961 16.2524 20.6097 15.4741C21.3233 14.6958 21.7076 13.6581 21.6781 12.5887V12.3637H11.8344C11.5443 12.3637 11.2661 12.2452 11.061 12.0342C10.8559 11.8233 10.7406 11.5371 10.7406 11.2387C10.7406 10.9404 10.8559 10.6542 11.061 10.4433C11.2661 10.2323 11.5443 10.1137 11.8344 10.1137H20.9344C20.5975 9.60108 20.145 9.17986 19.6155 8.88602C19.086 8.59217 18.4953 8.43443 17.8938 8.42625H11.7578C11.3952 8.42625 11.0475 8.27809 10.7911 8.01437C10.5347 7.75064 10.3906 7.39296 10.3906 7.02C10.3906 6.64704 10.5347 6.28935 10.7911 6.02563C11.0475 5.76191 11.3952 5.61375 11.7578 5.61375H26.25C26.5401 5.61375 26.8183 5.73228 27.0234 5.94325C27.2285 6.15423 27.3438 6.44038 27.3438 6.73875C27.3438 7.03712 27.2285 7.32326 27.0234 7.53424C26.8183 7.74522 26.5401 7.86375 26.25 7.86375H22.6188C23.1912 8.52542 23.6366 9.29271 23.9313 10.125V10.125Z" fill="#73BC87"/>
</svg>
