<svg width="27" height="36" viewBox="0 0 27 36" fill="none" xmlns="http://www.w3.org/2000/svg">
<path d="M24.75 0H2.25C1.65326 0 1.08097 0.237053 0.65901 0.65901C0.237053 1.08097 0 1.65326 0 2.25V33.75C0 34.3467 0.237053 34.919 0.65901 35.341C1.08097 35.7629 1.65326 36 2.25 36H24.75C25.3467 36 25.919 35.7629 26.341 35.341C26.7629 34.919 27 34.3467 27 33.75V2.25C27 1.65326 26.7629 1.08097 26.341 0.65901C25.919 0.237053 25.3467 0 24.75 0ZM7.875 27H5.625V24.75H7.875V27ZM7.875 22.5H5.625V20.25H7.875V22.5ZM7.875 18H5.625V15.75H7.875V18ZM7.875 13.5H5.625V11.25H7.875V13.5ZM7.875 9H5.625V6.75H7.875V9ZM21.375 27H10.125V24.75H21.375V27ZM21.375 22.5H10.125V20.25H21.375V22.5ZM21.375 18H10.125V15.75H21.375V18ZM21.375 13.5H10.125V11.25H21.375V13.5ZM21.375 9H10.125V6.75H21.375V9Z" fill="#73BC87"/>
</svg>
