<svg width="384" height="81" viewBox="0 0 384 81" fill="none" xmlns="http://www.w3.org/2000/svg">
<g filter="url(#filter0_d_6_1931)">
<rect x="4" y="4" width="368" height="65" rx="10" fill="#36BA7E"/>
</g>
<path d="M82.376 48.192C80.6907 48.192 79.1333 47.9147 77.704 47.36C76.2747 46.784 75.0373 45.984 73.992 44.96C72.9467 43.936 72.1253 42.7307 71.528 41.344C70.952 39.9573 70.664 38.4427 70.664 36.8C70.664 35.1573 70.952 33.6427 71.528 32.256C72.1253 30.8693 72.9467 29.664 73.992 28.64C75.0587 27.616 76.3067 26.8267 77.736 26.272C79.1653 25.696 80.7227 25.408 82.408 25.408C84.0293 25.408 85.5547 25.6853 86.984 26.24C88.4133 26.7733 89.6187 27.584 90.6 28.672L89.096 30.176C88.1787 29.2373 87.1653 28.5653 86.056 28.16C84.9467 27.7333 83.752 27.52 82.472 27.52C81.128 27.52 79.88 27.7547 78.728 28.224C77.576 28.672 76.5733 29.3227 75.72 30.176C74.8667 31.008 74.1947 31.9893 73.704 33.12C73.2347 34.2293 73 35.456 73 36.8C73 38.144 73.2347 39.3813 73.704 40.512C74.1947 41.6213 74.8667 42.6027 75.72 43.456C76.5733 44.288 77.576 44.9387 78.728 45.408C79.88 45.856 81.128 46.08 82.472 46.08C83.752 46.08 84.9467 45.8667 86.056 45.44C87.1653 45.0133 88.1787 44.3307 89.096 43.392L90.6 44.896C89.6187 45.984 88.4133 46.8053 86.984 47.36C85.5547 47.9147 84.0187 48.192 82.376 48.192ZM103.744 31.04C105.109 31.04 106.304 31.3067 107.328 31.84C108.373 32.352 109.184 33.1413 109.76 34.208C110.357 35.2747 110.656 36.6187 110.656 38.24V48H108.384V38.464C108.384 36.6933 107.936 35.36 107.04 34.464C106.165 33.5467 104.928 33.088 103.328 33.088C102.133 33.088 101.088 33.3333 100.192 33.824C99.3173 34.2933 98.6347 34.9867 98.144 35.904C97.6747 36.8 97.44 37.888 97.44 39.168V48H95.168V24.256H97.44V35.808L96.992 34.944C97.5253 33.728 98.3787 32.7787 99.552 32.096C100.725 31.392 102.123 31.04 103.744 31.04ZM123.929 48.16C122.18 48.16 120.644 47.7973 119.321 47.072C117.998 46.3253 116.964 45.312 116.217 44.032C115.47 42.7307 115.097 41.248 115.097 39.584C115.097 37.92 115.449 36.448 116.153 35.168C116.878 33.888 117.86 32.8853 119.097 32.16C120.356 31.4133 121.764 31.04 123.321 31.04C124.9 31.04 126.297 31.4027 127.513 32.128C128.75 32.832 129.721 33.8347 130.425 35.136C131.129 36.416 131.481 37.8987 131.481 39.584C131.481 39.6907 131.47 39.808 131.449 39.936C131.449 40.0427 131.449 40.16 131.449 40.288H116.825V38.592H130.233L129.337 39.264C129.337 38.048 129.07 36.9707 128.537 36.032C128.025 35.072 127.321 34.3253 126.425 33.792C125.529 33.2587 124.494 32.992 123.321 32.992C122.169 32.992 121.134 33.2587 120.217 33.792C119.3 34.3253 118.585 35.072 118.073 36.032C117.561 36.992 117.305 38.0907 117.305 39.328V39.68C117.305 40.96 117.582 42.0907 118.137 43.072C118.713 44.032 119.502 44.7893 120.505 45.344C121.529 45.8773 122.692 46.144 123.993 46.144C125.017 46.144 125.966 45.9627 126.841 45.6C127.737 45.2373 128.505 44.6827 129.145 43.936L130.425 45.408C129.678 46.304 128.74 46.9867 127.609 47.456C126.5 47.9253 125.273 48.16 123.929 48.16ZM143.082 48.16C141.418 48.16 139.924 47.7973 138.602 47.072C137.3 46.3253 136.276 45.312 135.53 44.032C134.783 42.7307 134.41 41.248 134.41 39.584C134.41 37.8987 134.783 36.416 135.53 35.136C136.276 33.856 137.3 32.8533 138.602 32.128C139.924 31.4027 141.418 31.04 143.082 31.04C144.511 31.04 145.802 31.3173 146.954 31.872C148.106 32.4267 149.012 33.2587 149.674 34.368L147.978 35.52C147.402 34.6667 146.687 34.0373 145.834 33.632C144.98 33.2267 144.052 33.024 143.05 33.024C141.855 33.024 140.778 33.3013 139.818 33.856C138.858 34.3893 138.1 35.1467 137.546 36.128C136.991 37.1093 136.714 38.2613 136.714 39.584C136.714 40.9067 136.991 42.0587 137.546 43.04C138.1 44.0213 138.858 44.7893 139.818 45.344C140.778 45.8773 141.855 46.144 143.05 46.144C144.052 46.144 144.98 45.9413 145.834 45.536C146.687 45.1307 147.402 44.512 147.978 43.68L149.674 44.832C149.012 45.92 148.106 46.752 146.954 47.328C145.802 47.8827 144.511 48.16 143.082 48.16ZM155.679 43.648L155.743 40.736L166.207 31.2H168.991L161.599 38.272L160.319 39.36L155.679 43.648ZM153.887 48V24.256H156.159V48H153.887ZM166.911 48L159.903 39.264L161.375 37.504L169.695 48H166.911ZM192.009 48V44.288L191.913 43.68V37.472C191.913 36.0427 191.507 34.944 190.697 34.176C189.907 33.408 188.723 33.024 187.145 33.024C186.057 33.024 185.022 33.2053 184.041 33.568C183.059 33.9307 182.227 34.4107 181.545 35.008L180.521 33.312C181.374 32.5867 182.398 32.032 183.593 31.648C184.787 31.2427 186.046 31.04 187.369 31.04C189.545 31.04 191.219 31.584 192.393 32.672C193.587 33.7387 194.185 35.3707 194.185 37.568V48H192.009ZM186.217 48.16C184.958 48.16 183.859 47.9573 182.921 47.552C182.003 47.1253 181.299 46.5493 180.809 45.824C180.318 45.0773 180.073 44.224 180.073 43.264C180.073 42.3893 180.275 41.6 180.681 40.896C181.107 40.1707 181.79 39.5947 182.729 39.168C183.689 38.72 184.969 38.496 186.569 38.496H192.361V40.192H186.633C185.011 40.192 183.881 40.48 183.241 41.056C182.622 41.632 182.312 42.3467 182.312 43.2C182.312 44.16 182.686 44.928 183.433 45.504C184.179 46.08 185.225 46.368 186.569 46.368C187.849 46.368 188.947 46.08 189.865 45.504C190.803 44.9067 191.486 44.0533 191.913 42.944L192.425 44.512C191.998 45.6213 191.251 46.5067 190.185 47.168C189.139 47.8293 187.817 48.16 186.217 48.16ZM204.363 48L196.907 31.2H199.275L206.123 46.784H205.003L211.947 31.2H214.187L206.699 48H204.363ZM227.415 48V44.288L227.319 43.68V37.472C227.319 36.0427 226.913 34.944 226.103 34.176C225.313 33.408 224.129 33.024 222.551 33.024C221.463 33.024 220.428 33.2053 219.447 33.568C218.465 33.9307 217.633 34.4107 216.951 35.008L215.927 33.312C216.78 32.5867 217.804 32.032 218.999 31.648C220.193 31.2427 221.452 31.04 222.775 31.04C224.951 31.04 226.625 31.584 227.799 32.672C228.993 33.7387 229.591 35.3707 229.591 37.568V48H227.415ZM221.623 48.16C220.364 48.16 219.265 47.9573 218.327 47.552C217.409 47.1253 216.705 46.5493 216.215 45.824C215.724 45.0773 215.479 44.224 215.479 43.264C215.479 42.3893 215.681 41.6 216.087 40.896C216.513 40.1707 217.196 39.5947 218.135 39.168C219.095 38.72 220.375 38.496 221.975 38.496H227.767V40.192H222.039C220.417 40.192 219.287 40.48 218.647 41.056C218.028 41.632 217.719 42.3467 217.719 43.2C217.719 44.16 218.092 44.928 218.839 45.504C219.585 46.08 220.631 46.368 221.975 46.368C223.255 46.368 224.353 46.08 225.271 45.504C226.209 44.9067 226.892 44.0533 227.319 42.944L227.831 44.512C227.404 45.6213 226.657 46.5067 225.591 47.168C224.545 47.8293 223.223 48.16 221.623 48.16ZM235.762 48V31.2H238.034V48H235.762ZM236.914 27.488C236.444 27.488 236.05 27.328 235.73 27.008C235.41 26.688 235.25 26.304 235.25 25.856C235.25 25.408 235.41 25.0347 235.73 24.736C236.05 24.416 236.444 24.256 236.914 24.256C237.383 24.256 237.778 24.4053 238.098 24.704C238.418 25.0027 238.578 25.376 238.578 25.824C238.578 26.2933 238.418 26.688 238.098 27.008C237.799 27.328 237.404 27.488 236.914 27.488ZM244.356 48V24.256H246.628V48H244.356ZM263.477 48V44.288L263.381 43.68V37.472C263.381 36.0427 262.976 34.944 262.165 34.176C261.376 33.408 260.192 33.024 258.613 33.024C257.525 33.024 256.491 33.2053 255.509 33.568C254.528 33.9307 253.696 34.4107 253.013 35.008L251.989 33.312C252.843 32.5867 253.867 32.032 255.061 31.648C256.256 31.2427 257.515 31.04 258.837 31.04C261.013 31.04 262.688 31.584 263.861 32.672C265.056 33.7387 265.653 35.3707 265.653 37.568V48H263.477ZM257.685 48.16C256.427 48.16 255.328 47.9573 254.389 47.552C253.472 47.1253 252.768 46.5493 252.277 45.824C251.787 45.0773 251.541 44.224 251.541 43.264C251.541 42.3893 251.744 41.6 252.149 40.896C252.576 40.1707 253.259 39.5947 254.197 39.168C255.157 38.72 256.437 38.496 258.037 38.496H263.829V40.192H258.101C256.48 40.192 255.349 40.48 254.709 41.056C254.091 41.632 253.781 42.3467 253.781 43.2C253.781 44.16 254.155 44.928 254.901 45.504C255.648 46.08 256.693 46.368 258.037 46.368C259.317 46.368 260.416 46.08 261.333 45.504C262.272 44.9067 262.955 44.0533 263.381 42.944L263.893 44.512C263.467 45.6213 262.72 46.5067 261.653 47.168C260.608 47.8293 259.285 48.16 257.685 48.16ZM280.496 48.16C279.024 48.16 277.702 47.8293 276.528 47.168C275.355 46.4853 274.427 45.504 273.744 44.224C273.062 42.944 272.72 41.3973 272.72 39.584C272.72 37.7493 273.062 36.2027 273.744 34.944C274.448 33.664 275.387 32.6933 276.56 32.032C277.734 31.3707 279.046 31.04 280.496 31.04C282.096 31.04 283.526 31.4027 284.784 32.128C286.064 32.832 287.067 33.824 287.792 35.104C288.518 36.384 288.88 37.8773 288.88 39.584C288.88 41.2693 288.518 42.7627 287.792 44.064C287.067 45.344 286.064 46.3467 284.784 47.072C283.526 47.7973 282.096 48.16 280.496 48.16ZM271.824 48V24.256H274.096V36.16L273.776 39.552L274 42.944V48H271.824ZM280.336 46.144C281.531 46.144 282.598 45.8773 283.536 45.344C284.475 44.7893 285.222 44.0213 285.776 43.04C286.331 42.0373 286.608 40.8853 286.608 39.584C286.608 38.2613 286.331 37.1093 285.776 36.128C285.222 35.1467 284.475 34.3893 283.536 33.856C282.598 33.3013 281.531 33.024 280.336 33.024C279.142 33.024 278.064 33.3013 277.104 33.856C276.166 34.3893 275.419 35.1467 274.864 36.128C274.331 37.1093 274.064 38.2613 274.064 39.584C274.064 40.8853 274.331 42.0373 274.864 43.04C275.419 44.0213 276.166 44.7893 277.104 45.344C278.064 45.8773 279.142 46.144 280.336 46.144ZM293.512 48V31.2H295.784V48H293.512ZM294.664 27.488C294.194 27.488 293.8 27.328 293.48 27.008C293.16 26.688 293 26.304 293 25.856C293 25.408 293.16 25.0347 293.48 24.736C293.8 24.416 294.194 24.256 294.664 24.256C295.133 24.256 295.528 24.4053 295.848 24.704C296.168 25.0027 296.328 25.376 296.328 25.824C296.328 26.2933 296.168 26.688 295.848 27.008C295.549 27.328 295.154 27.488 294.664 27.488ZM302.106 48V24.256H304.378V48H302.106ZM310.699 48V31.2H312.971V48H310.699ZM311.851 27.488C311.382 27.488 310.987 27.328 310.667 27.008C310.347 26.688 310.187 26.304 310.187 25.856C310.187 25.408 310.347 25.0347 310.667 24.736C310.987 24.416 311.382 24.256 311.851 24.256C312.321 24.256 312.715 24.4053 313.035 24.704C313.355 25.0027 313.515 25.376 313.515 25.824C313.515 26.2933 313.355 26.688 313.035 27.008C312.737 27.328 312.342 27.488 311.851 27.488ZM324.605 48.16C323.026 48.16 321.81 47.7333 320.957 46.88C320.104 46.0267 319.677 44.8213 319.677 43.264V27.488H321.949V43.136C321.949 44.1173 322.194 44.8747 322.685 45.408C323.197 45.9413 323.922 46.208 324.861 46.208C325.864 46.208 326.696 45.92 327.357 45.344L328.157 46.976C327.709 47.3813 327.165 47.68 326.525 47.872C325.906 48.064 325.266 48.16 324.605 48.16ZM316.669 33.088V31.2H327.069V33.088H316.669ZM332.109 54.368C331.319 54.368 330.562 54.24 329.837 53.984C329.133 53.728 328.524 53.344 328.012 52.832L329.069 51.136C329.495 51.5413 329.954 51.8507 330.445 52.064C330.957 52.2987 331.522 52.416 332.141 52.416C332.887 52.416 333.527 52.2027 334.061 51.776C334.615 51.3707 335.138 50.6453 335.629 49.6L336.717 47.136L336.973 46.784L343.885 31.2H346.125L337.709 50.016C337.239 51.104 336.717 51.968 336.141 52.608C335.586 53.248 334.978 53.696 334.317 53.952C333.655 54.2293 332.919 54.368 332.109 54.368ZM336.589 48.48L328.845 31.2H331.213L338.061 46.624L336.589 48.48Z" fill="white"/>
<path d="M38 27V21L30.5 28.5L38 36V30C42.965 30 47 34.035 47 39C47 43.965 42.965 48 38 48C33.035 48 29 43.965 29 39H26C26 45.63 31.37 51 38 51C44.63 51 50 45.63 50 39C50 32.37 44.63 27 38 27Z" fill="white"/>
<defs>
<filter id="filter0_d_6_1931" x="0" y="0" width="384" height="81" filterUnits="userSpaceOnUse" color-interpolation-filters="sRGB">
<feFlood flood-opacity="0" result="BackgroundImageFix"/>
<feColorMatrix in="SourceAlpha" type="matrix" values="0 0 0 0 0 0 0 0 0 0 0 0 0 0 0 0 0 0 127 0" result="hardAlpha"/>
<feOffset dx="4" dy="4"/>
<feGaussianBlur stdDeviation="4"/>
<feComposite in2="hardAlpha" operator="out"/>
<feColorMatrix type="matrix" values="0 0 0 0 0 0 0 0 0 0 0 0 0 0 0 0 0 0 0.25 0"/>
<feBlend mode="normal" in2="BackgroundImageFix" result="effect1_dropShadow_6_1931"/>
<feBlend mode="normal" in="SourceGraphic" in2="effect1_dropShadow_6_1931" result="shape"/>
</filter>
</defs>
</svg>
