<svg width="41" height="12" viewBox="0 0 41 12" fill="none" xmlns="http://www.w3.org/2000/svg">
<rect x="6.20679" y="0.827148" width="34.7586" height="10.3448" rx="0.413793" fill="#00D173"/>
<path d="M-2.62268e-07 6L6.51724 0.803848L6.51724 11.1962L-2.62268e-07 6Z" fill="#00D173"/>
<circle cx="6.00006" cy="5.99957" r="1.03448" fill="white"/>
<path d="M13.0742 8.48242V4.42725H13.5029V8.48242H13.0742ZM16.288 5.41208C16.5352 5.41208 16.7515 5.46035 16.9368 5.5569C17.1261 5.64959 17.2728 5.79249 17.3771 5.98559C17.4852 6.1787 17.5393 6.42201 17.5393 6.71553V8.48242H17.128V6.75608C17.128 6.43553 17.0469 6.19415 16.8847 6.03194C16.7263 5.86587 16.5023 5.78284 16.2127 5.78284C15.9964 5.78284 15.8072 5.82725 15.645 5.91608C15.4866 6.00104 15.363 6.12656 15.2742 6.29263C15.1892 6.45484 15.1468 6.6518 15.1468 6.88353V8.48242H14.7355V5.44104H15.1294V6.27525L15.0657 6.11884C15.1622 5.8987 15.3167 5.72684 15.5291 5.60325C15.7415 5.4758 15.9945 5.41208 16.288 5.41208ZM21.3714 8.51718C21.0702 8.51718 20.7806 8.4689 20.5025 8.37235C20.2283 8.27194 20.0159 8.14449 19.8652 7.99001L20.0332 7.6598C20.1761 7.79884 20.3673 7.91663 20.6068 8.01318C20.8501 8.10587 21.105 8.15221 21.3714 8.15221C21.6263 8.15221 21.833 8.12132 21.9913 8.05953C22.1535 7.99387 22.2713 7.90697 22.3447 7.79884C22.4219 7.6907 22.4606 7.57097 22.4606 7.43966C22.4606 7.28132 22.4142 7.15387 22.3215 7.05732C22.2327 6.96077 22.1149 6.88546 21.9681 6.83139C21.8214 6.77346 21.6592 6.72325 21.4815 6.68077C21.3039 6.63828 21.1262 6.59387 20.9486 6.54753C20.7709 6.49732 20.6068 6.43166 20.4561 6.35056C20.3094 6.26946 20.1897 6.16325 20.097 6.03194C20.0081 5.89677 19.9637 5.72104 19.9637 5.50477C19.9637 5.30394 20.0159 5.12049 20.1201 4.95442C20.2283 4.78449 20.3924 4.64932 20.6126 4.5489C20.8327 4.44463 21.1146 4.39249 21.4583 4.39249C21.6862 4.39249 21.9121 4.42532 22.1361 4.49097C22.3601 4.55277 22.5532 4.63966 22.7155 4.75166L22.5706 5.09346C22.3968 4.97759 22.2114 4.89263 22.0145 4.83856C21.8214 4.78449 21.6341 4.75746 21.4526 4.75746C21.2092 4.75746 21.0084 4.79028 20.8501 4.85594C20.6917 4.92159 20.5739 5.01042 20.4967 5.12242C20.4233 5.23056 20.3866 5.35415 20.3866 5.49318C20.3866 5.65153 20.431 5.77897 20.5199 5.87553C20.6126 5.97208 20.7323 6.04739 20.879 6.10146C21.0297 6.15553 21.1938 6.2038 21.3714 6.24628C21.5491 6.28877 21.7248 6.33511 21.8986 6.38532C22.0763 6.43553 22.2385 6.50118 22.3852 6.58228C22.5359 6.65953 22.6556 6.7638 22.7444 6.89511C22.8371 7.02642 22.8835 7.19828 22.8835 7.4107C22.8835 7.60766 22.8294 7.79111 22.7212 7.96104C22.6131 8.12711 22.447 8.26228 22.223 8.36656C22.0029 8.46697 21.719 8.51718 21.3714 8.51718ZM24.6923 8.51139C24.4065 8.51139 24.1863 8.43415 24.0318 8.27966C23.8774 8.12518 23.8001 7.90697 23.8001 7.62504V4.76904H24.2114V7.60187C24.2114 7.77953 24.2558 7.91663 24.3447 8.01318C24.4374 8.10973 24.5687 8.15801 24.7386 8.15801C24.9201 8.15801 25.0707 8.10587 25.1905 8.00159L25.3353 8.29704C25.2542 8.37042 25.1557 8.42449 25.0398 8.45925C24.9278 8.49401 24.812 8.51139 24.6923 8.51139ZM23.2556 5.78284V5.44104H25.1383V5.78284H23.2556ZM27.2163 8.51139C26.9228 8.51139 26.6582 8.44573 26.4226 8.31442C26.1909 8.17925 26.0075 7.9958 25.8723 7.76408C25.7371 7.52849 25.6695 7.26008 25.6695 6.95884C25.6695 6.65373 25.7371 6.38532 25.8723 6.15359C26.0075 5.92187 26.1909 5.74035 26.4226 5.60904C26.6544 5.47773 26.9189 5.41208 27.2163 5.41208C27.5175 5.41208 27.784 5.47773 28.0157 5.60904C28.2513 5.74035 28.4348 5.92187 28.5661 6.15359C28.7012 6.38532 28.7688 6.65373 28.7688 6.95884C28.7688 7.26008 28.7012 7.52849 28.5661 7.76408C28.4348 7.9958 28.2513 8.17925 28.0157 8.31442C27.7801 8.44573 27.5137 8.51139 27.2163 8.51139ZM27.2163 8.14642C27.4364 8.14642 27.6315 8.09815 27.8014 8.00159C27.9713 7.90118 28.1046 7.76215 28.2011 7.58449C28.3015 7.40297 28.3517 7.19442 28.3517 6.95884C28.3517 6.71939 28.3015 6.51084 28.2011 6.33318C28.1046 6.15553 27.9713 6.01842 27.8014 5.92187C27.6315 5.82146 27.4384 5.77125 27.2221 5.77125C27.0058 5.77125 26.8127 5.82146 26.6428 5.92187C26.4728 6.01842 26.3377 6.15553 26.2372 6.33318C26.1368 6.51084 26.0866 6.71939 26.0866 6.95884C26.0866 7.19442 26.1368 7.40297 26.2372 7.58449C26.3377 7.76215 26.4728 7.90118 26.6428 8.00159C26.8127 8.09815 27.0039 8.14642 27.2163 8.14642ZM30.8715 8.51139C30.5702 8.51139 30.2999 8.44573 30.0604 8.31442C29.8248 8.17925 29.6395 7.9958 29.5043 7.76408C29.3691 7.52849 29.3015 7.26008 29.3015 6.95884C29.3015 6.65373 29.3691 6.38532 29.5043 6.15359C29.6395 5.92187 29.8248 5.74035 30.0604 5.60904C30.2999 5.47773 30.5702 5.41208 30.8715 5.41208C31.1302 5.41208 31.3639 5.46228 31.5724 5.5627C31.781 5.66311 31.9451 5.81373 32.0648 6.01456L31.7578 6.22311C31.6535 6.06863 31.5242 5.9547 31.3697 5.88132C31.2152 5.80794 31.0472 5.77125 30.8657 5.77125C30.6494 5.77125 30.4544 5.82146 30.2806 5.92187C30.1068 6.01842 29.9697 6.15553 29.8693 6.33318C29.7688 6.51084 29.7186 6.71939 29.7186 6.95884C29.7186 7.19828 29.7688 7.40684 29.8693 7.58449C29.9697 7.76215 30.1068 7.90118 30.2806 8.00159C30.4544 8.09815 30.6494 8.14642 30.8657 8.14642C31.0472 8.14642 31.2152 8.10973 31.3697 8.03635C31.5242 7.96297 31.6535 7.85097 31.7578 7.70035L32.0648 7.9089C31.9451 8.10587 31.781 8.25649 31.5724 8.36077C31.3639 8.46118 31.1302 8.51139 30.8715 8.51139ZM33.152 7.69456L33.1636 7.16739L35.0579 5.44104H35.5619L34.2237 6.72132L33.992 6.91828L33.152 7.69456ZM32.8276 8.48242V4.18394H33.2389V8.48242H32.8276ZM35.1854 8.48242L33.9167 6.9009L34.1832 6.58228L35.6894 8.48242H35.1854Z" fill="black"/>
</svg>
