<svg width="63" height="23" viewBox="0 0 63 23" fill="none" xmlns="http://www.w3.org/2000/svg">
<rect width="63" height="22.0825" rx="5.19588" fill="#E6E6E6"/>
<path d="M49.6956 14.8757L50.3183 15.4984L53.8011 12.0156L50.3183 8.53271L49.6956 9.15541L52.5557 12.0156L49.6956 14.8757V14.8757Z" fill="#323232"/>
<path d="M15.0291 16.3251C14.3536 16.3251 13.7041 16.2169 13.0806 16.0004C12.4658 15.7752 11.9895 15.4895 11.6518 15.1431L12.0285 14.4027C12.3489 14.7144 12.7775 14.9785 13.3145 15.195C13.86 15.4029 14.4316 15.5068 15.0291 15.5068C15.6006 15.5068 16.0639 15.4375 16.419 15.2989C16.7827 15.1517 17.0468 14.9569 17.2114 14.7144C17.3846 14.4719 17.4712 14.2035 17.4712 13.909C17.4712 13.554 17.3672 13.2682 17.1594 13.0517C16.9602 12.8352 16.6961 12.6664 16.367 12.5451C16.038 12.4152 15.6742 12.3027 15.2759 12.2074C14.8775 12.1121 14.4792 12.0126 14.0808 11.9086C13.6825 11.7961 13.3145 11.6488 12.9767 11.467C12.6477 11.2851 12.3792 11.047 12.1714 10.7526C11.9722 10.4495 11.8726 10.0554 11.8726 9.57049C11.8726 9.12018 11.9895 8.70884 12.2233 8.33647C12.4658 7.95544 12.8338 7.65235 13.3274 7.42719C13.8211 7.19338 14.4532 7.07647 15.2239 7.07647C15.7349 7.07647 16.2415 7.15008 16.7437 7.29729C17.246 7.43585 17.679 7.6307 18.0427 7.88183L17.718 8.64822C17.3283 8.38843 16.9126 8.19791 16.471 8.07668C16.038 7.95544 15.618 7.89482 15.211 7.89482C14.6654 7.89482 14.2151 7.96843 13.86 8.11564C13.505 8.26286 13.2408 8.46204 13.0677 8.71317C12.9031 8.95564 12.8208 9.23276 12.8208 9.54451C12.8208 9.89956 12.9204 10.1853 13.1196 10.4018C13.3274 10.6183 13.5959 10.7872 13.925 10.9084C14.2627 11.0297 14.6307 11.1379 15.0291 11.2332C15.4274 11.3284 15.8215 11.4323 16.2112 11.5449C16.6095 11.6575 16.9732 11.8047 17.3023 11.9866C17.64 12.1598 17.9085 12.3936 18.1077 12.688C18.3155 12.9824 18.4194 13.3678 18.4194 13.8441C18.4194 14.2857 18.2982 14.6971 18.0557 15.0781C17.8132 15.4505 17.4408 15.7536 16.9386 15.9874C16.445 16.2126 15.8085 16.3251 15.0291 16.3251ZM23.8002 9.36266C24.3544 9.36266 24.8394 9.4709 25.255 9.6874C25.6794 9.89523 26.0084 10.2156 26.2422 10.6486C26.4847 11.0816 26.606 11.6272 26.606 12.2853V16.2472H25.6837V12.3763C25.6837 11.6575 25.5018 11.1163 25.1381 10.7526C24.7831 10.3802 24.2808 10.194 23.6313 10.194C23.1464 10.194 22.722 10.2936 22.3583 10.4928C22.0033 10.6833 21.7262 10.9647 21.527 11.3371C21.3365 11.7008 21.2412 12.1424 21.2412 12.662V16.2472H20.3189V6.60884H21.2412V11.2981L21.0594 10.9474C21.2759 10.4538 21.6222 10.0684 22.0985 9.79132C22.5748 9.50554 23.142 9.36266 23.8002 9.36266ZM31.8769 16.3121C31.2188 16.3121 30.6256 16.1649 30.0973 15.8705C29.5778 15.5674 29.1664 15.1561 28.8633 14.6365C28.5602 14.1082 28.4087 13.5064 28.4087 12.8309C28.4087 12.1468 28.5602 11.5449 28.8633 11.0253C29.1664 10.5057 29.5778 10.0987 30.0973 9.80431C30.6169 9.50987 31.2101 9.36266 31.8769 9.36266C32.5524 9.36266 33.1499 9.50987 33.6695 9.80431C34.1978 10.0987 34.6091 10.5057 34.9035 11.0253C35.2066 11.5449 35.3582 12.1468 35.3582 12.8309C35.3582 13.5064 35.2066 14.1082 34.9035 14.6365C34.6091 15.1561 34.1978 15.5674 33.6695 15.8705C33.1413 16.1649 32.5437 16.3121 31.8769 16.3121ZM31.8769 15.4938C32.3705 15.4938 32.8079 15.3855 33.1889 15.169C33.5699 14.9439 33.8687 14.6321 34.0852 14.2338C34.3103 13.8268 34.4229 13.3592 34.4229 12.8309C34.4229 12.294 34.3103 11.8264 34.0852 11.428C33.8687 11.0297 33.5699 10.7222 33.1889 10.5057C32.8079 10.2806 32.3749 10.168 31.8899 10.168C31.405 10.168 30.972 10.2806 30.5909 10.5057C30.2099 10.7222 29.9068 11.0297 29.6817 11.428C29.4565 11.8264 29.3439 12.294 29.3439 12.8309C29.3439 13.3592 29.4565 13.8268 29.6817 14.2338C29.9068 14.6321 30.2099 14.9439 30.5909 15.169C30.972 15.3855 31.4006 15.4938 31.8769 15.4938ZM40.7613 16.3121C40.1724 16.3121 39.6398 16.1779 39.1635 15.9095C38.6872 15.6323 38.3062 15.2383 38.0204 14.7274C37.7433 14.2078 37.6048 13.5756 37.6048 12.8309C37.6048 12.0862 37.7433 11.4583 38.0204 10.9474C38.2976 10.4278 38.6743 10.0338 39.1505 9.76534C39.6268 9.49688 40.1637 9.36266 40.7613 9.36266C41.4108 9.36266 41.991 9.50987 42.5019 9.80431C43.0215 10.0901 43.4285 10.4971 43.7229 11.0253C44.0174 11.5449 44.1646 12.1468 44.1646 12.8309C44.1646 13.5237 44.0174 14.1299 43.7229 14.6495C43.4285 15.169 43.0215 15.5761 42.5019 15.8705C41.991 16.1649 41.4108 16.3121 40.7613 16.3121ZM37.2411 18.7672V9.4276H38.1244V11.48L38.0334 12.8439L38.1633 14.2208V18.7672H37.2411ZM40.6963 15.4938C41.1813 15.4938 41.6143 15.3855 41.9953 15.169C42.3763 14.9439 42.6794 14.6321 42.9046 14.2338C43.1297 13.8268 43.2423 13.3592 43.2423 12.8309C43.2423 12.3027 43.1297 11.8394 42.9046 11.441C42.6794 11.0427 42.3763 10.7309 41.9953 10.5057C41.6143 10.2806 41.1813 10.168 40.6963 10.168C40.2114 10.168 39.7741 10.2806 39.3844 10.5057C39.0033 10.7309 38.7002 11.0427 38.4751 11.441C38.2586 11.8394 38.1503 12.3027 38.1503 12.8309C38.1503 13.3592 38.2586 13.8268 38.4751 14.2338C38.7002 14.6321 39.0033 14.9439 39.3844 15.169C39.7741 15.3855 40.2114 15.4938 40.6963 15.4938Z" fill="black"/>
</svg>
