<svg xmlns="http://www.w3.org/2000/svg" viewBox="0 0 457.13 312.51"><defs><style>.cls-1{fill:#0d6965;}.cls-2{fill:#0e918c;}.cls-3{fill:#70d9d4;}.cls-4{fill:#35a6a1;}.cls-5{fill:#492c13;}.cls-6{fill:#febaa3;}.cls-7{fill:#ffb94a;}.cls-8{fill:#e85151;}.cls-9{fill:#f6830f;}.cls-10{fill:#ffdca6;}.cls-11{fill:#b35e0b;}.cls-12{fill:#fff;}.cls-13{fill:#8c1c07;}.cls-14{fill:#c91e1e;}.cls-15{fill:#8e4136;}.cls-16{fill:#c16b5b;}.cls-17{fill:#a85d4f;}</style></defs><g id="Layer_2" data-name="Layer 2"><g id="OBJECTS"><path class="cls-1" d="M346.09,210.21a68.74,68.74,0,0,1,15.77-7.8.81.81,0,0,1,.36,1.58,67,67,0,0,0-25.74,16.23,66.7,66.7,0,0,0-19.07,44.22.81.81,0,0,1-1.62-.05,68,68,0,0,1,30.3-54.18Z"/><path class="cls-1" d="M307.9,235.23a18.29,18.29,0,0,1,10.39,17.45,13.56,13.56,0,0,1-7.44-2.67,12.5,12.5,0,0,1-4.43-6.86A10.07,10.07,0,0,1,307.9,235.23Z"/><path class="cls-1" d="M314.63,222a18.28,18.28,0,0,1,6.95,19.09,13.61,13.61,0,0,1-6.81-4,12.47,12.47,0,0,1-3.06-7.58A10.06,10.06,0,0,1,314.63,222Z"/><path class="cls-1" d="M323.3,210.39a18.29,18.29,0,0,1,4.26,19.86,13.64,13.64,0,0,1-6.19-4.91,12.51,12.51,0,0,1-2-7.92A10.07,10.07,0,0,1,323.3,210.39Z"/><path class="cls-1" d="M336.75,200.66a18.29,18.29,0,0,1-2.05,20.21,13.7,13.7,0,0,1-4.39-6.58,12.52,12.52,0,0,1,.54-8.15A10.05,10.05,0,0,1,336.75,200.66Z"/><path class="cls-1" d="M346.81,191.29a18.31,18.31,0,0,1-2.06,20.21,13.52,13.52,0,0,1-4.38-6.58,12.46,12.46,0,0,1,.54-8.15A10.08,10.08,0,0,1,346.81,191.29Z"/><path class="cls-1" d="M362.11,188.54a18.32,18.32,0,0,1-8.93,18.25,13.58,13.58,0,0,1-1.83-7.69,12.47,12.47,0,0,1,3.33-7.47A10.07,10.07,0,0,1,362.11,188.54Z"/><path class="cls-1" d="M375.48,190.09A18.32,18.32,0,0,1,361,204.3a13.67,13.67,0,0,1,.85-7.86,12.47,12.47,0,0,1,5.64-5.92A10.1,10.1,0,0,1,375.48,190.09Z"/><path class="cls-1" d="M375.89,211.69a18.27,18.27,0,0,0-19.24-6.52,13.7,13.7,0,0,0,4.17,6.72,12.51,12.51,0,0,0,7.64,2.89A10,10,0,0,0,375.89,211.69Z"/><path class="cls-1" d="M365.78,217.77a18.34,18.34,0,0,0-19.24-6.52A13.52,13.52,0,0,0,350.7,218a12.52,12.52,0,0,0,7.64,2.9A10.09,10.09,0,0,0,365.78,217.77Z"/><path class="cls-1" d="M357.1,224.77a18.32,18.32,0,0,0-19.24-6.52A13.63,13.63,0,0,0,342,225a12.49,12.49,0,0,0,7.64,2.89A10,10,0,0,0,357.1,224.77Z"/><path class="cls-1" d="M348.36,231.19a18.3,18.3,0,0,0-20.13-2.72,13.57,13.57,0,0,0,5.37,5.8,12.55,12.55,0,0,0,8,1.38A10.11,10.11,0,0,0,348.36,231.19Z"/><path class="cls-1" d="M340.78,237.38A18.31,18.31,0,0,0,321,241.82a13.56,13.56,0,0,0,7.05,3.57,12.51,12.51,0,0,0,8-1.5A10.05,10.05,0,0,0,340.78,237.38Z"/><path class="cls-1" d="M336.44,248a18.28,18.28,0,0,0-19,7.13,13.58,13.58,0,0,0,7.47,2.56,12.48,12.48,0,0,0,7.75-2.59A10.08,10.08,0,0,0,336.44,248Z"/><path class="cls-2" d="M102.17,211.39a60.49,60.49,0,0,0-15.54-2.32.73.73,0,0,0-.66.78.75.75,0,0,0,.79.66,60,60,0,0,1,26.33,6.75,59.55,59.55,0,0,1,28.3,32.39.72.72,0,0,0,1.36-.49,60.67,60.67,0,0,0-40.58-37.77Z"/><path class="cls-2" d="M141.49,222.21a16.37,16.37,0,0,0-4.07,17.68,12.09,12.09,0,0,0,5.6-4.3,11.2,11.2,0,0,0,1.89-7.05A9,9,0,0,0,141.49,222.21Z"/><path class="cls-2" d="M132.16,212.84a16.35,16.35,0,0,0-.69,18.13,12.12,12.12,0,0,0,4.69-5.27,11.12,11.12,0,0,0,.53-7.28A9,9,0,0,0,132.16,212.84Z"/><path class="cls-2" d="M121.6,205.3a16.36,16.36,0,0,0,1.81,18.06,12.21,12.21,0,0,0,3.92-5.87,11.12,11.12,0,0,0-.47-7.29A9,9,0,0,0,121.6,205.3Z"/><path class="cls-2" d="M107.5,200.71a16.34,16.34,0,0,0,7.28,16.62,12.21,12.21,0,0,0,1.92-6.79,11.14,11.14,0,0,0-2.69-6.79A9,9,0,0,0,107.5,200.71Z"/><path class="cls-2" d="M96.39,195.5a16.34,16.34,0,0,0,7.28,16.62,12.13,12.13,0,0,0,1.92-6.79,11.16,11.16,0,0,0-2.68-6.79A9,9,0,0,0,96.39,195.5Z"/><path class="cls-2" d="M82.63,197.34a16.34,16.34,0,0,0,12.58,13.07,12.16,12.16,0,0,0-.55-7,11.15,11.15,0,0,0-4.87-5.43A9,9,0,0,0,82.63,197.34Z"/><path class="cls-2" d="M71.69,202.32a16.34,16.34,0,0,0,16.23,8.1A12.1,12.1,0,0,0,85.05,204a11.21,11.21,0,0,0-6.41-3.49A9,9,0,0,0,71.69,202.32Z"/><path class="cls-2" d="M77.24,220.79A16.33,16.33,0,0,1,91.81,210a12.17,12.17,0,0,1-1.7,6.85,11.19,11.19,0,0,1-5.71,4.55A8.94,8.94,0,0,1,77.24,220.79Z"/><path class="cls-2" d="M87.51,223.2a16.33,16.33,0,0,1,14.57-10.8,12.19,12.19,0,0,1-1.7,6.85,11.19,11.19,0,0,1-5.71,4.55A9,9,0,0,1,87.51,223.2Z"/><path class="cls-2" d="M96.79,226.77A16.36,16.36,0,0,1,111.37,216a12.1,12.1,0,0,1-1.71,6.85,11.13,11.13,0,0,1-5.7,4.55A9,9,0,0,1,96.79,226.77Z"/><path class="cls-2" d="M106,229.84A16.37,16.37,0,0,1,122.36,222a12.15,12.15,0,0,1-3,6.4,11.16,11.16,0,0,1-6.47,3.38A9,9,0,0,1,106,229.84Z"/><path class="cls-2" d="M114.12,233a16.38,16.38,0,0,1,18.07-1.64,12.08,12.08,0,0,1-5,5,11.11,11.11,0,0,1-7.23.92A9,9,0,0,1,114.12,233Z"/><path class="cls-2" d="M120.71,240.86a16.34,16.34,0,0,1,18.12.85,12.08,12.08,0,0,1-5.66,4.23,11.11,11.11,0,0,1-7.29-.09A9,9,0,0,1,120.71,240.86Z"/><path class="cls-1" d="M160.79,295.18c-1.33-.66-2.64-1.34-3.94-2l-1.61-.86q-4.5-2.46-8.83-5.18a68.1,68.1,0,0,0-26.75-26.45c-5.17-2.8-11.1-5.28-13.79-10.5-2.35-4.57-1.45-10.44,1.67-14.53a19,19,0,0,1,13.29-6.93c7.28-.68,14.53,2.23,20.18,6.94.79.66,1.55,1.35,2.28,2.08,5,5,8.5,11.42,11.06,18.1h0a1.22,1.22,0,0,1,.07.17q.62,1.61,1.17,3.24l.18.54v0c1,2.91,1.78,5.87,2.48,8.86h0a100.91,100.91,0,0,1,2.55,19.81C160.88,290.71,160.87,293,160.79,295.18Z"/><path class="cls-3" d="M156.85,293.15l-1.61-.86A122,122,0,0,0,151.53,279c-.62-1.81-1.3-3.61-2-5.39A81.1,81.1,0,0,0,138.29,254a64.23,64.23,0,0,0-11.2-11.15,54.84,54.84,0,0,0-8.48-5.44c-.79-.41,0-1.56.78-1.16a55.87,55.87,0,0,1,8.52,5.47c1.24.95,2.43,1.95,3.59,3a73.18,73.18,0,0,1,16.19,21.56,93.3,93.3,0,0,1,4.29,9.9A120.94,120.94,0,0,1,156.85,293.15Z"/><path class="cls-4" d="M174.3,301.14c-3.25-1.26-6.46-2.63-9.6-4.09a60.05,60.05,0,0,0-3.89-8.57A62.11,62.11,0,0,0,152,276.14c-.8-.88-1.62-1.72-2.47-2.55a61,61,0,0,0-11.29-8.69c-4.63-2.76-10-5.26-12.23-10.16a12.67,12.67,0,0,1,1.1-11.92c.26-.39.53-.77.82-1.13l.16-.2a17.38,17.38,0,0,1,12.46-5.84,3.85,3.85,0,0,1,.48,0,22.78,22.78,0,0,1,9.91,2,29.78,29.78,0,0,1,9.85,7.13c5.17,5.63,8.31,12.85,10.44,20.19a92.73,92.73,0,0,1,3.09,36.16Z"/><path class="cls-3" d="M163.71,271.1a67.37,67.37,0,0,0-14-20.39,54.14,54.14,0,0,0-10.78-8.22c-.71-.4-1.47.62-.76,1a56.08,56.08,0,0,1,17.4,16,77.82,77.82,0,0,1,11.18,23.43,117,117,0,0,1,3.36,15.15.64.64,0,0,0,1.26-.19A104.37,104.37,0,0,0,163.71,271.1Z"/><path class="cls-2" d="M196.88,276.72a73.09,73.09,0,0,0,9.23-10A24.5,24.5,0,0,0,211,254.11c.27-4.55-1.35-9.33-4.84-12.24s-8.95-3.56-12.68-.94c1.8-3.91,3.62-7.87,4.29-12.12s.06-8.89-2.6-12.26-7.68-5-11.5-3.08c-.55-4.2-1.23-8.46-3.12-12.25s-5.16-7.09-9.28-8a12.27,12.27,0,0,0-11.6,3.93,15,15,0,0,0-3.4,12,19.59,19.59,0,0,0,5.88,11.16c-2.92-2-7.59-.57-10.25,1.76a10.93,10.93,0,0,0-3.28,9.63,16.36,16.36,0,0,0,4.91,9.18,33.45,33.45,0,0,0,8.75,5.91c-5.15,1.24-8.32,6.85-8,12.14s3.56,10,7.54,13.54C171.35,280.78,187.73,285.52,196.88,276.72Z"/><path class="cls-3" d="M168.1,201.65a225,225,0,0,1,10.29,26.8,224.84,224.84,0,0,1,6.79,28.06q1.4,8,2.2,16c.09.89-1.28,1.21-1.37.31a222.82,222.82,0,0,0-4.69-28.25A220.78,220.78,0,0,0,173,217.15q-2.82-7.53-6.18-14.84C166.48,201.49,167.72,200.82,168.1,201.65Z"/><path class="cls-2" d="M330.28,246.36a13.89,13.89,0,0,1-.79,3.37,18.61,18.61,0,0,1-4,6.3c-.31.33-.64.65-1,1h0a37.25,37.25,0,0,1-7.87,5.43,9.68,9.68,0,0,1,4.13,2,11.7,11.7,0,0,1,1,1,13.22,13.22,0,0,1,3.52,9.35c-.16,5.49-3.33,10.52-7.34,14.27-.45.42-.91.83-1.39,1.24h0l-1,.59c-.47.27-.94.54-1.42.8q-2.81,1.56-5.69,3-3.85,2-7.83,3.7c-6.83,1.58-13.74.85-18.78-3.69A75.35,75.35,0,0,1,272,284.58a25.42,25.42,0,0,1-5.47-12.84c-.43-4.7,1.08-9.7,4.6-12.84s9.14-4,13.08-1.4c-2-4-4-8-4.85-12.39s-.36-9.2,2.28-12.78,7.77-5.48,11.79-3.58c.42-4.36,1-8.79,2.81-12.78s5.1-7.52,9.33-8.64A12.71,12.71,0,0,1,317.67,211a15.61,15.61,0,0,1,3.93,12.28A20.38,20.38,0,0,1,315.89,235c2.95-2.17,7.84-.85,10.67,1.47l.26.23A11.35,11.35,0,0,1,330.28,246.36Z"/><path class="cls-3" d="M309.07,216a231.38,231.38,0,0,0-15.8,57.35q-1.17,8.31-1.73,16.68c-.07.92,1.36,1.21,1.43.27a230.34,230.34,0,0,1,11.52-58.09q2.65-7.89,5.89-15.57C310.74,215.77,309.43,215.12,309.07,216Z"/><path class="cls-4" d="M353.7,251.47c-1.56,5.45-6.7,8.93-11.06,12.55a64.91,64.91,0,0,0-16,19.9q-4.91,3.34-10.05,6.32h0l-1,.59c-.47.27-.94.54-1.42.8q-2.81,1.56-5.69,3a97.49,97.49,0,0,1-.08-25.14c1-8,3.1-16,7.55-22.7a30.67,30.67,0,0,1,10.89-10.08,23.41,23.41,0,0,1,8.64-2.72,18.3,18.3,0,0,1,13.9,4C353.09,241.31,355.06,246.7,353.7,251.47Z"/><path class="cls-3" d="M339.21,241.79a59.09,59.09,0,0,0-15.46,19.45q-1,2-1.93,4.14a84.84,84.84,0,0,0-5.85,22c-.15,1.13-.29,2.27-.4,3.41-.47.27-.94.54-1.42.8a97.08,97.08,0,0,1,3-17,76.86,76.86,0,0,1,3.61-10.21,66.76,66.76,0,0,1,3.74-7.41h0a60.9,60.9,0,0,1,3.86-5.85c.36-.48.72-1,1.09-1.42a57.09,57.09,0,0,1,8.77-8.88C338.93,240.32,339.89,241.25,339.21,241.79Z"/><path class="cls-5" d="M187.9,1.65a15.36,15.36,0,0,0-7,6.06c-4.68,7.65-2.13,17.69-.36,25.86,2.74,12.65.44,24.44-6,35.59-6.17,10.65-14.95,20.25-17.87,32.5a35.9,35.9,0,0,0,32,44.12,38.08,38.08,0,0,0,5,.07c12.16-.57,23.34-6.07,35-8.88,5-1.21,11.6-2.75,16.63-1.41,6.71,1.79,12.81,3.62,19.88,2.9a29.92,29.92,0,0,0,23-15c5.43-9.92,3.42-22.17-1.32-32l-.35-.7c-5.5-10.91-15.92-21-14.69-34.1.6-6.31,2.27-12.47,1.45-18.84a39.62,39.62,0,0,0-5.08-14.69A48.81,48.81,0,0,0,244.65,2.77a45.83,45.83,0,0,0-4.44-1.57c-6.82-2-13.13-1-20-.38C212.82,1.5,205.42.33,198,.19a25.58,25.58,0,0,0-9.58,1.24Z"/><path class="cls-6" d="M112.34,105.09s-9.28,5.24-17.3.35-8.59-12-8.59-12-12.77,6.23-15.3,4.36S82.27,87.44,82.27,87.44s-16.58,1.28-17-1.42,17.19-5.36,17.19-5.36-17-6.53-15.73-10,22.4,4.52,22.4,4.52-7.09-14.42-4.08-16c4.33-2.26,21.28,23.07,21.55,22.82s6.22-13.61,11.13-10.27c4.73,3.22-2,7.41-1.89,14.24C115.9,89.17,118,100.91,112.34,105.09Z"/><path class="cls-7" d="M195.71,121.75c-29.75,8.57-54.39,54-54.39,54L120.45,98s-19.58-.52-30.12,8.16c0,0,8.53,113.81,42.62,117.91,24.85,3,56.26-53.37,56.26-53.37Z"/><path class="cls-8" d="M298.39,299.57a164,164,0,0,1-46.07,11.95,167.35,167.35,0,0,1-39.39-.36,164.2,164.2,0,0,1-39.11-10L195,210.1s-10.41-3.17-12.37-22.78v0c-.17-1.66-.28-3.42-.31-5.31-.16-9,1.28-20.81,5.56-36.28,1.7-6.18,3.86-12.95,6.54-20.35.41-1.15.84-2.31,1.28-3.5l0-.1,2.43-.86,1-.37,6-2.14h0L209,117l4.57-1.65,1.39-.49h25l1.6.46.2.07,1.07.3,2.37.69,4.78,1.38h0l4.74,1.36,1.07.32,8,2.31.06.35c.24,1.49,1.23,7.68,2.6,16.18,1.47,9.22,3.4,21.15,5.28,32.73.18,1.08.35,2.15.53,3.21l.06.39c2.68,16.54,5.17,31.7,6,36.41C282,230.55,293.82,280.41,298.39,299.57Z"/><path class="cls-6" d="M345.46,104s9.43,5.32,17.58.35,8.72-12.17,8.72-12.17,13,6.32,15.53,4.43S376,86.08,376,86.08s16.83,1.3,17.25-1.44S375.8,79.2,375.8,79.2s17.31-6.63,16-10.16S369,73.64,369,73.64,376.23,59,373.17,57.4c-4.4-2.29-21.61,23.43-21.88,23.18S345,66.76,340,70.15c-4.8,3.27,2,7.53,1.92,14.47C341.85,87.84,339.72,99.76,345.46,104Z"/><path class="cls-7" d="M263.88,121.75c33.49,7.78,54.36,53.59,54.36,53.59l20.22-78.16s21.9,1.86,31.71,7.67c0,0-10.42,110.06-45.61,117.28-24.37,5-54.18-51.42-54.18-51.42Z"/><path class="cls-7" d="M217.34,204,215.74,243l-2.81,68.15a164.2,164.2,0,0,1-39.11-10q-2.28-.89-4.52-1.86l23.64-87.83.2-.78c-8.68-4.19-11.77-14.26-11.88-26.17,0-.33,0-.65,0-1a90,90,0,0,1,.54-9.15,173.64,173.64,0,0,1,5.86-28.72c2.5-8.79,5.11-16.19,6.68-20.33.71-1.92,1.2-3.15,1.34-3.5l0-.1,2.43-.86,1-.37,6-2.14h0L209,117l2.41,25.23Z"/><path class="cls-9" d="M188.28,145.64A152.46,152.46,0,0,1,195,126.39c.34-.79-.84-1.49-1.18-.68a156.07,156.07,0,0,0-12.44,54.54c-.27,6.13-.49,12.54,1.2,18.5,1.55,5.46,5,10.51,10.38,12.75.81.33,1.17-1,.37-1.32-4.69-2-7.8-6.48-9.26-11.19-1.77-5.71-1.59-11.88-1.37-17.79A155.1,155.1,0,0,1,188.28,145.64Z"/><path class="cls-7" d="M303,297.53c-1.54.71-3.09,1.38-4.65,2a164,164,0,0,1-46.07,11.95L243.61,243l-4.85-38.18,5.12-69.55L245,120.77v-.12l.32-4.28,4.78,1.38,4.74,1.36,1.07.31,8.85,2.55,2.73.78s.62,6.06,1.66,15c1.14,10,2.77,23.52,4.6,36.4.14,1.06.3,2.12.45,3.17a.83.83,0,0,0,0,.22c1.53,10.58,3.18,20.43,4.76,27.11C282.94,221.63,296.45,272.71,303,297.53Z"/><path class="cls-9" d="M280.77,185.4q-8.92-13.6-16.63-28c-.41-.78-1.59-.09-1.18.68q2.18,4,4.44,8l-6.72-3.95a.68.68,0,0,0-.68,1.18l8.6,5.06a1,1,0,0,0,.16.05q5.17,9,10.84,17.62C280.08,186.82,281.26,186.14,280.77,185.4Z"/><polygon class="cls-9" points="205.14 118.38 198.47 190.6 202.8 196.12 198.47 210.7 215.73 243.01 217.33 203.95 209.03 116.98 205.14 118.38"/><polygon class="cls-9" points="245.28 116.37 238.76 204.84 243.61 243.01 259.44 209.42 253.28 194.35 257.67 187.25 250.07 117.75 245.28 116.37"/><path class="cls-10" d="M108.51,68.29A11.3,11.3,0,0,0,97.84,67c-1.81.75-1,3.73.82,3a8.33,8.33,0,0,1,9.55,2.2c3,3.62,2.37,8.84,1.34,13a38.74,38.74,0,0,1-12.68,20.34c-1.52,1.28.67,3.45,2.18,2.18a41.68,41.68,0,0,0,12.36-18C113.83,82.91,115.3,73.19,108.51,68.29Z"/><polygon class="cls-11" points="83.29 200.74 11.4 170.93 53.47 85.25 114.2 110.43 83.29 200.74"/><polygon class="cls-7" points="71.89 202.55 0 172.74 42.07 87.06 102.8 112.24 71.89 202.55"/><path class="cls-12" d="M96.8,80.1a15.8,15.8,0,0,0-14.72-8.36c-6.24.27-11.74,3.54-15.78,8.17-5,5.74-7.62,13-10.11,20-.66,1.88,2.26,2.84,2.92,1,3.53-10,8.23-22.86,19.88-25.65,5.32-1.28,11.09.27,14.28,4.92,2.85,4.14,2.88,9.64,1.46,14.31-1.91,6.3-6.38,11.48-10.6,16.39a1.61,1.61,0,0,0-.11,2.18,1.56,1.56,0,0,0,2.18.11c4.25-5,8.61-10,11-16.22C99.17,91.62,99.47,85.27,96.8,80.1Z"/><polygon class="cls-9" points="71.89 202.55 83.29 200.74 114.2 110.43 102.8 112.24 71.89 202.55"/><polygon class="cls-11" points="42.07 87.06 53.47 85.25 50.8 90.68 42.07 87.06"/><path class="cls-10" d="M128.38,89.2c-1.89-6.31-5.77-12.21-11.76-15.28a18.12,18.12,0,0,0-17.79.77C93,78.19,89.41,84.27,88,90.8c-1.79,8.34-.15,16.86,2.2,24.92.56,1.9,3.53,1.09,3-.82-3.42-11.7-5.58-27.21,5.06-36.05A15.47,15.47,0,0,1,114,76.09c5.57,2.3,9.32,7.51,11.15,13.1,2.39,7.28,2,15,1.6,22.58-.1,2,3,2,3.08,0C130.22,104.25,130.57,96.51,128.38,89.2Z"/><polygon class="cls-13" points="162.21 210.21 75.77 221.54 68.61 114.84 141.64 105.27 162.21 210.21"/><polygon class="cls-8" points="152.16 218.35 65.72 229.68 58.56 122.98 131.59 113.41 152.16 218.35"/><path class="cls-12" d="M117.37,98.12c-1.89-6.32-5.78-12.22-11.77-15.28a18.1,18.1,0,0,0-17.78.76C82,87.1,78.4,93.19,77,99.71c-1.79,8.35-.16,16.87,2.2,24.92.56,1.9,3.53,1.09,3-.81-3.42-11.71-5.58-27.22,5.06-36A15.47,15.47,0,0,1,103,85c5.57,2.31,9.32,7.52,11.15,13.1,2.39,7.29,2,15,1.6,22.59-.11,2,3,2,3.08,0C119.21,113.16,119.56,105.43,117.37,98.12Z"/><polygon class="cls-14" points="152.16 218.35 162.21 210.21 141.64 105.27 131.59 113.41 152.16 218.35"/><polygon class="cls-13" points="58.56 122.98 68.61 114.84 69.06 121.6 58.56 122.98"/><path class="cls-6" d="M185.56,68.5c0,.21,0,.4.06.6,1.08,10.2,4.73,16.67,9.84,21.5A120,120,0,0,0,205,98.42c.52.4,1,.82,1.48,1.24,5,4.26,7.8,8.91,7.07,22.24,3.9,11.61,21.16,14.15,27.47,1.51a132.32,132.32,0,0,1,7.72-38.69c.8-2.31,1.59-4.27,2.25-5.85,1.27-3,2.15-4.65,2.15-4.65s1.2-35.48-3.37-45.16c-11.18-23.4-55.21-18-59.6-.13C185.88,46.35,184.66,59,185.56,68.5Z"/><path class="cls-5" d="M183.66,50.41A48.15,48.15,0,0,1,207.22,26,18.17,18.17,0,0,0,229,42.22,31.61,31.61,0,0,0,239,56.6a30.71,30.71,0,0,0,16,6.59C256,52,256.92,40,252.67,29.62A35.7,35.7,0,0,0,194.59,17.7C186.29,25.88,181.49,39,183.66,50.41Z"/><path class="cls-5" d="M201,50.69a9,9,0,0,0-11.24.1,1.82,1.82,0,0,0-.34,2.27,1.31,1.31,0,0,0,2,.37,6.49,6.49,0,0,1,4.77-1.37,6.64,6.64,0,0,1,2.43.77c.67.37,1.31,1,2.1.57a1.28,1.28,0,0,0,.48-.42A1.81,1.81,0,0,0,201,50.69Z"/><path class="cls-5" d="M211.75,51.11a11.56,11.56,0,0,1,12.85,1.06,1.63,1.63,0,1,1-2.09,2.49,8.17,8.17,0,0,0-5.34-1.74,8.57,8.57,0,0,0-2.83.55c-.8.3-1.6.85-2.46.38a1.64,1.64,0,0,1-.13-2.74Z"/><path d="M220.72,62.07a2.86,2.86,0,1,1-2.73-3A2.84,2.84,0,0,1,220.72,62.07Z"/><path class="cls-12" d="M217.9,61.16a1,1,0,0,1-1.09,1,1,1,0,0,1-1-1.09,1.06,1.06,0,0,1,1.09-1A1,1,0,0,1,217.9,61.16Z"/><path d="M198.64,61.11a2.86,2.86,0,1,1-2.73-3A2.86,2.86,0,0,1,198.64,61.11Z"/><path class="cls-12" d="M195.82,60.2a1,1,0,0,1-2.09-.09,1,1,0,1,1,2.09.09Z"/><path class="cls-15" d="M212.38,74.77c-.79-1.42-3.21-.14-6-.09s-5.25-1.16-6,.28c-1,1.82,1.53,6.29,6.1,6.22S213.39,76.57,212.38,74.77Z"/><path class="cls-16" d="M212,77.77a22.72,22.72,0,0,0-2.8-.14c-3.25.05-6,.76-7.3,1.74a6.38,6.38,0,0,0,10.1-1.6Z"/><path class="cls-12" d="M206.4,76.25c2.49,0,4.6-.67,5.35-2-1.11-.43-3.12.41-5.38.45s-4.29-.75-5.39-.29C201.78,75.73,203.91,76.29,206.4,76.25Z"/><path class="cls-16" d="M201.85,69a.36.36,0,0,1-.34-.28c-.6-2.47.26-3.26,1.09-3.49a3.6,3.6,0,0,1,2.93.78.37.37,0,0,1-.42.62A2.92,2.92,0,0,0,202.8,66c-.75.21-.94,1.08-.57,2.59A.37.37,0,0,1,202,69,.21.21,0,0,1,201.85,69Z"/><path class="cls-6" d="M262.64,75.56c-4,4.26-9.95,5.14-13.32,2s-2.89-9.18,1.1-13.43,10-5.14,13.33-2S266.63,71.31,262.64,75.56Z"/><path class="cls-17" d="M261.18,64.18a6.46,6.46,0,0,0-5.67-.2,5.25,5.25,0,0,0-2.26,1.57,3.19,3.19,0,0,0-.62,2.93,4.64,4.64,0,0,0,1.45,1.92,4.4,4.4,0,0,1,1,1.11,1.71,1.71,0,0,1-.31,1.92,1.69,1.69,0,0,1-1.93.28.73.73,0,0,0-1,.31.74.74,0,0,0,.3,1,3.11,3.11,0,0,0,4.23-4.17,5.39,5.39,0,0,0-1.3-1.52A3.43,3.43,0,0,1,254,68a1.75,1.75,0,0,1,.38-1.57,2.69,2.69,0,0,1,.58-.53,3,3,0,0,1,2.06.83,2.63,2.63,0,0,1,.51,2.18.74.74,0,0,0,.56.87l.12,0a.74.74,0,0,0,.75-.58,4.06,4.06,0,0,0-.81-3.42,3.26,3.26,0,0,0-1.05-.8,4.6,4.6,0,0,1,3.31.41A2.83,2.83,0,0,1,261.66,69a.73.73,0,1,0,1.29.69A4.28,4.28,0,0,0,261.18,64.18Z"/><path class="cls-10" d="M356.77,91.88c-1.76-7-1.86-14.9,1.1-21.56a19.27,19.27,0,0,1,7.87-8.89,21.43,21.43,0,0,1,6.09-4.17,19.32,19.32,0,0,0-14.77,8.15c-4.54,6.78-5.26,15.56-4,23.43a42.92,42.92,0,0,0,12,23.59,1.54,1.54,0,0,0,2.18-2.18A40.12,40.12,0,0,1,356.77,91.88Z"/><polygon class="cls-13" points="457.13 185.46 373.41 216.71 341.66 111.8 412.38 85.41 457.13 185.46"/><polygon class="cls-8" points="448.97 195.91 365.25 227.15 333.5 122.25 404.22 95.85 448.97 195.91"/><path class="cls-12" d="M381.41,82.51c-3-7.33-8.06-14.47-16.11-16.68-7.7-2.12-15.51,1.92-19.8,8.32-4.54,6.77-5.25,15.56-4,23.43a43,43,0,0,0,12,23.59,1.54,1.54,0,0,0,2.18-2.18,40,40,0,0,1-10.4-18.38c-1.77-7-1.87-14.9,1.09-21.55,2.77-6.25,9-11.52,16.2-10.66,7.45.88,12.49,7.35,15.4,13.71a66.21,66.21,0,0,1,5.6,27.18,1.55,1.55,0,0,0,3.09,0A70.85,70.85,0,0,0,381.41,82.51Z"/><polygon class="cls-14" points="448.97 195.91 457.13 185.46 412.38 85.41 404.22 95.85 448.97 195.91"/><polygon class="cls-13" points="333.5 122.25 341.66 111.8 343.67 118.45 333.5 122.25"/><path class="cls-10" d="M382,77.64a19.47,19.47,0,0,0-20.33-6.3c-6.5,1.89-11.58,7.1-14.6,13-4.16,8.16-4.58,17.54-4.95,26.51-.08,2,3,2,3.08,0,.52-12.62,1.59-28.78,14.37-35.39A16.39,16.39,0,0,1,378,77.91c5.21,4.79,6.21,12,5.37,18.77a38,38,0,0,1-9.15,20.22c-1.3,1.49.87,3.67,2.18,2.18a41.22,41.22,0,0,0,9.68-19.9C387.44,91.78,386.92,83.69,382,77.64Z"/><polygon class="cls-1" points="378.95 221.76 293.76 203.26 323.01 100.4 394.99 116.03 378.95 221.76"/><polygon class="cls-4" points="366.75 226.03 281.55 207.53 310.81 104.67 382.78 120.3 366.75 226.03"/><path class="cls-12" d="M368,80.9a19.49,19.49,0,0,0-20.33-6.31c-6.5,1.9-11.58,7.11-14.6,13-4.16,8.16-4.58,17.54-4.95,26.51-.08,2,3,2,3.08,0,.52-12.62,1.59-28.78,14.37-35.39A16.39,16.39,0,0,1,364,81.17c5.21,4.79,6.21,12,5.37,18.76a38,38,0,0,1-9.15,20.23c-1.3,1.48.87,3.67,2.18,2.18a41.22,41.22,0,0,0,9.68-19.9C373.37,95,372.85,86.94,368,80.9Z"/><polygon class="cls-2" points="366.75 226.03 378.95 221.76 394.99 116.03 382.78 120.3 366.75 226.03"/><polygon class="cls-1" points="310.81 104.67 323.01 100.4 321.16 106.92 310.81 104.67"/></g></g></svg>