<svg width="9" height="7" viewBox="0 0 9 7" fill="none" xmlns="http://www.w3.org/2000/svg">
<path d="M1.77 0.777778C1.8 1.12389 1.875 1.46222 1.995 1.785L1.395 2.25167C1.19 1.785 1.06 1.29111 1.015 0.777778H1.77V0.777778ZM6.7 5.45222C7.125 5.54556 7.56 5.60389 8 5.62722V6.20667C7.34 6.17167 6.705 6.07056 6.1 5.915L6.7 5.45222V5.45222ZM2.25 0H0.5C0.225 0 0 0.175 0 0.388889C0 4.04056 3.805 7 8.5 7C8.775 7 9 6.825 9 6.61111V5.25389C9 5.04 8.775 4.865 8.5 4.865C7.88 4.865 7.275 4.78722 6.715 4.64333C6.665 4.62778 6.61 4.62389 6.56 4.62389C6.43 4.62389 6.305 4.66278 6.205 4.73667L5.105 5.59222C3.69 5.02833 2.53 4.13 1.81 3.02944L2.91 2.17389C3.05 2.065 3.09 1.91333 3.035 1.77722C2.85 1.34167 2.75 0.875 2.75 0.388889C2.75 0.175 2.525 0 2.25 0Z" fill="black"/>
</svg>
