<svg width="44" height="19" viewBox="0 0 44 19" fill="none" xmlns="http://www.w3.org/2000/svg">
<rect width="43.8462" height="19" fill="#FCBB15"/>
<path d="M21.7701 14.0166C21.1933 14.0166 20.6321 13.927 20.0865 13.7477C19.5486 13.5684 19.1082 13.3268 18.7652 13.0228L19.3031 12.0991C19.5759 12.3563 19.9306 12.5668 20.3671 12.7305C20.8036 12.8942 21.2713 12.976 21.7701 12.976C22.3781 12.976 22.8497 12.8474 23.1849 12.5902C23.5279 12.3251 23.6994 11.9705 23.6994 11.5262C23.6994 11.0975 23.5357 10.7545 23.2083 10.4972C22.8887 10.2322 22.3781 10.0997 21.6766 10.0997H21.0218V9.28125L23.4538 6.28802L23.6175 6.75571H19.1394V5.73848H24.5412V6.53356L22.1209 9.5151L21.5129 9.15263H21.8988C22.8887 9.15263 23.6292 9.37479 24.1203 9.8191C24.6192 10.2634 24.8686 10.8285 24.8686 11.5145C24.8686 11.9744 24.7556 12.3953 24.5295 12.7772C24.3035 13.1592 23.9605 13.4632 23.5006 13.6892C23.0485 13.9075 22.4717 14.0166 21.7701 14.0166ZM26.7308 13.9932C26.5125 13.9932 26.3255 13.9192 26.1696 13.7711C26.0137 13.6152 25.9357 13.4203 25.9357 13.1865C25.9357 12.9526 26.0137 12.7617 26.1696 12.6136C26.3255 12.4655 26.5125 12.3914 26.7308 12.3914C26.9412 12.3914 27.1205 12.4655 27.2686 12.6136C27.4245 12.7617 27.5025 12.9526 27.5025 13.1865C27.5025 13.4203 27.4245 13.6152 27.2686 13.7711C27.1205 13.9192 26.9412 13.9932 26.7308 13.9932ZM31.2506 14.0166C30.6738 14.0166 30.1125 13.927 29.5669 13.7477C29.0291 13.5684 28.5886 13.3268 28.2457 13.0228L28.7835 12.0991C29.0563 12.3563 29.411 12.5668 29.8475 12.7305C30.284 12.8942 30.7478 12.976 31.2389 12.976C31.8625 12.976 32.3419 12.8435 32.6771 12.5785C33.0122 12.3135 33.1798 11.9588 33.1798 11.5145C33.1798 11.2105 33.1058 10.9455 32.9577 10.7194C32.8096 10.4934 32.5523 10.3219 32.186 10.2049C31.8274 10.0802 31.3324 10.0179 30.7011 10.0179H28.842L29.2746 5.73848H33.8931V6.75571H29.7072L30.3152 6.18279L29.9761 9.56186L29.3681 9.00063H30.9466C31.7651 9.00063 32.4237 9.10586 32.9226 9.31633C33.4215 9.52679 33.7839 9.8191 34.01 10.1932C34.236 10.5596 34.3491 10.9844 34.3491 11.4677C34.3491 11.9354 34.236 12.3641 34.01 12.7539C33.7839 13.1358 33.441 13.4437 32.9811 13.6776C32.529 13.9036 31.9521 14.0166 31.2506 14.0166Z" fill="white"/>
<g clip-path="url(#clip0_2_942)">
<path d="M9.50013 11.7465L12.1345 13.3365L11.4354 10.3398L13.7629 8.32346L10.698 8.06343L9.50013 5.23718L8.30227 8.06343L5.2373 8.32346L7.5648 10.3398L6.8657 13.3365L9.50013 11.7465Z" fill="white"/>
</g>
<defs>
<clipPath id="clip0_2_942">
<rect width="10.2308" height="10.2308" fill="white" transform="translate(4.38477 4.38464)"/>
</clipPath>
</defs>
</svg>
