<svg width="49" height="46" viewBox="0 0 49 46" fill="none" xmlns="http://www.w3.org/2000/svg">
<rect width="48.1231" height="46" rx="7.07692" fill="#E1E1E1"/>
<g clip-path="url(#clip0_6_1930)">
<path d="M28.5731 14.3309C26.8286 14.3309 25.1543 15.143 24.0615 16.4263C22.9687 15.143 21.2945 14.3309 19.55 14.3309C16.4621 14.3309 14.0359 16.7571 14.0359 19.845C14.0359 23.6347 17.4446 26.7226 22.6078 31.4146L24.0615 32.728L25.5152 31.4046C30.6785 26.7226 34.0872 23.6347 34.0872 19.845C34.0872 16.7571 31.661 14.3309 28.5731 14.3309ZM24.1618 29.9208L24.0615 30.0211L23.9613 29.9208C19.1891 25.5998 16.041 22.7424 16.041 19.845C16.041 17.8399 17.5449 16.3361 19.55 16.3361C21.0939 16.3361 22.5978 17.3286 23.1291 18.7021H25.0039C25.5253 17.3286 27.0291 16.3361 28.5731 16.3361C30.5782 16.3361 32.082 17.8399 32.082 19.845C32.082 22.7424 28.934 25.5998 24.1618 29.9208Z" fill="#323232"/>
</g>
<defs>
<clipPath id="clip0_6_1930">
<rect width="24.0615" height="24.0615" fill="white" transform="translate(12.0308 11.3232)"/>
</clipPath>
</defs>
</svg>
