<svg width="75" height="78" viewBox="0 0 75 78" fill="none" xmlns="http://www.w3.org/2000/svg">
<path d="M36.5142 19.397C37.6132 17.1357 39.5656 15.4036 41.9417 14.5817C44.3179 13.7598 46.9232 13.9156 49.1845 15.0146C51.4459 16.1136 53.178 18.066 53.9999 20.4422C54.8217 22.8183 54.666 25.4236 53.567 27.685L51.2629 32.4256L54.6735 34.0832L56.9775 29.3426C57.7394 27.775 58.1851 26.0727 58.289 24.3329C58.393 22.593 58.1533 20.8498 57.5836 19.2026C57.0139 17.5554 56.1253 16.0366 54.9686 14.7328C53.8119 13.4291 52.4097 12.3659 50.8421 11.604C49.2745 10.8422 47.5722 10.3965 45.8324 10.2925C44.0926 10.1885 42.3493 10.4283 40.7022 10.998C39.055 11.5677 37.5362 12.4563 36.2324 13.613C34.9286 14.7697 33.8655 16.1719 33.1036 17.7395L30.7996 22.4801L34.2101 24.1377L36.5142 19.397Z" fill="#4B8D5E"/>
<path d="M54.6712 34.0836L52.102 39.37C51.8822 39.8222 51.4917 40.1687 51.0165 40.333C50.5412 40.4974 50.0202 40.4663 49.5679 40.2465C49.1156 40.0267 48.7692 39.6362 48.6048 39.161C48.4405 38.6857 48.4716 38.1647 48.6914 37.7124L51.2607 32.426L34.2079 24.1381L31.6386 29.4245C31.4188 29.8767 31.0283 30.2232 30.5531 30.3875C30.0779 30.5519 29.5568 30.5208 29.1045 30.3009C28.6523 30.0811 28.3059 29.6907 28.1415 29.2154C27.9771 28.7402 28.0082 28.2191 28.2281 27.7669L30.7973 22.4805L18.8604 16.679L2.2845 50.7846C1.84488 51.6891 1.78259 52.7312 2.11133 53.6817C2.44008 54.6322 3.13293 55.4131 4.03747 55.8527L44.9642 75.7437C45.8687 76.1834 46.9109 76.2457 47.8613 75.9169C48.8118 75.5882 49.5927 74.8953 50.0324 73.9908L66.6082 39.8852L54.6712 34.0836Z" fill="#4B8D5E"/>
</svg>
